<?xml version="1.0" encoding="UTF-8"?>
<svg id="Layer_2" xmlns="http://www.w3.org/2000/svg" version="1.1" viewBox="0 0 64.8 86.2">
  <!-- Generator: Adobe Illustrator 29.7.1, SVG Export Plug-In . SVG Version: 2.1.1 Build 8)  -->
  <defs>
    <style>
      .st0 {
        fill: #fff;
      }
    </style>
  </defs>
  <polygon class="st0" points="1.3 79.4 1.3 81.9 2.7 82.9 21 75.8 21.7 74.9 21.7 72.3 20.2 71.3 1.9 78.4 1.3 79.4"/>
  <polygon class="st0" points="1.3 4.3 1.3 6.9 1.9 7.8 20.2 14.9 21.7 13.9 21.7 11.4 21 10.4 2.7 3.3 1.3 4.3"/>
  <polygon class="st0" points="22.2 65.8 22.2 68.3 23.6 69.3 42 62.2 42.6 61.2 42.6 58.7 41.1 57.7 22.8 64.8 22.2 65.8"/>
  <polygon class="st0" points="22.2 20.5 22.8 21.4 41.1 28.5 42.6 27.5 42.6 25 42 24 23.6 16.9 22.2 17.9 22.2 20.5"/>
  <polygon class="st0" points="43.1 52.2 43.1 54.7 44.6 55.7 62.9 48.6 63.5 47.6 63.5 45.1 62.1 44.1 43.7 51.2 43.1 52.2"/>
  <polygon class="st0" points="43.1 34.1 43.7 35 62.1 42.1 63.5 41.1 63.5 38.6 62.9 37.6 44.6 30.5 43.1 31.5 43.1 34.1"/>
</svg>