<?xml version="1.0" encoding="utf-8"?>
<!-- Generator: Adobe Illustrator 27.9.0, SVG Export Plug-In . SVG Version: 6.00 Build 0)  -->
<svg version="1.1" id="Layer_1" xmlns="http://www.w3.org/2000/svg" xmlns:xlink="http://www.w3.org/1999/xlink" x="0px" y="0px"
	 viewBox="0 0 702.8 611.8" style="enable-background:new 0 0 702.8 611.8;" xml:space="preserve">
<style type="text/css">
	.st0{display:none;}
	.st1{display:inline;}
	.st2{fill:#011826;}
	.st3{fill:url(#SVGID_1_);}
</style>
<g transform="translate(479.786 -208) rotate(90)" class="st0">
	<g class="st1">
		<g transform="translate(208 -223)">
			<path class="st2" d="M606.9,678.7L611.8,0C463.8,1.6,168.9,4,21,5.6l-1.2,85c133.1-1.5,309.8-2.8,465.2-4.4L0,643.4l51.7,59.4
				l485-557.1l-4.2,534L606.9,678.7z"/>
		</g>
	</g>
</g>
<g transform="translate(479.786 -208) rotate(90)">
	<g>
		<g transform="translate(208 -223)">
			<linearGradient id="SVGID_1_" gradientUnits="userSpaceOnUse" x1="28.0091" y1="682.9211" x2="716.2245" y2="105.4398">
				<stop  offset="0" style="stop-color:#1370B5"/>
				<stop  offset="0.5" style="stop-color:#612F8C"/>
				<stop  offset="1" style="stop-color:#C21A88"/>
			</linearGradient>
			<path class="st3" d="M606.9,678.7L611.8,0C463.8,1.6,168.9,4,21,5.6l-1.2,85c133.1-1.5,309.8-2.8,465.2-4.4L0,643.4l51.7,59.4
				l485-557.1l-4.2,534L606.9,678.7z"/>
		</g>
	</g>
</g>
</svg>
