<?xml version="1.0" encoding="UTF-8"?>
<svg id="Layer_2" data-name="Layer 2" xmlns="http://www.w3.org/2000/svg" xmlns:xlink="http://www.w3.org/1999/xlink" viewBox="0 0 217.91 205.59">
  <defs>
    <style>
      .cls-1 {
        fill: url(#linear-gradient);
        stroke-width: 0px;
      }
    </style>
    <linearGradient id="linear-gradient" x1="18.35" y1="93.12" x2="232.66" y2="150.54" gradientUnits="userSpaceOnUse">
      <stop offset="0" stop-color="#1370b5"/>
      <stop offset=".52" stop-color="#612f8c"/>
      <stop offset="1" stop-color="#c21a88"/>
    </linearGradient>
  </defs>
  <g id="Layer_1-2" data-name="Layer 1">
    <path class="cls-1" d="m21.12,171.72c-.73.46-1.52.81-2.38,1.07-.86.26-1.75.39-2.67.39-1.4,0-2.68-.22-3.84-.67-1.17-.44-2.16-1.07-2.99-1.89-.83-.82-1.48-1.8-1.93-2.96-.46-1.17-.69-2.46-.69-3.89s.23-2.69.71-3.85c.47-1.16,1.11-2.15,1.91-2.97.8-.81,1.74-1.45,2.81-1.91,1.08-.46,2.23-.69,3.46-.69.92,0,1.79.14,2.6.41.82.27,1.6.66,2.35,1.16.74.5,1.44,1.1,2.1,1.78l4.04-4.47c-.83-1.03-1.82-1.91-2.98-2.66-1.16-.74-2.44-1.31-3.83-1.7-1.39-.38-2.8-.58-4.23-.58-2.21,0-4.26.39-6.15,1.16-1.89.78-3.54,1.86-4.94,3.25-1.41,1.39-2.5,3.02-3.27,4.9-.77,1.87-1.16,3.92-1.16,6.12s.37,4.35,1.12,6.26c.74,1.9,1.8,3.55,3.16,4.94,1.36,1.39,2.96,2.46,4.81,3.22,1.85.76,3.88,1.14,6.08,1.14,1.46,0,2.91-.18,4.34-.54,1.44-.35,2.73-.85,3.89-1.48,1.16-.63,2.1-1.33,2.82-2.11l-3.18-5.02c-.58.6-1.23,1.13-1.96,1.59Zm93.16-22.95v5.8h8.77v24.28h6.45v-24.28h9.03v-5.8h-24.25Zm45.31,5.54v-5.54h-16.51v5.54h5.03v19h-5.03v5.54h16.51v-5.54h-5.03v-19h5.03Zm26.52-5.54l-5.94,16.28c-.43,1.12-.79,2.1-1.09,2.95-.3.84-.56,1.65-.78,2.41-.02.07-.04.13-.05.2-.14-.43-.27-.87-.42-1.32-.19-.59-.4-1.22-.64-1.89-.25-.68-.54-1.46-.88-2.35l-6.28-16.28h-6.83l11.99,30.08h5.63l12.08-30.08h-6.79Zm-133.76,41.35c-.22-.36-.54-.65-.95-.86-.41-.2-.87-.31-1.38-.31h-3.56v4.75h4.14c.4,0,.76-.1,1.08-.3s.57-.48.75-.83c.18-.35.27-.74.27-1.17,0-.49-.12-.91-.35-1.28Zm0,0c-.22-.36-.54-.65-.95-.86-.41-.2-.87-.31-1.38-.31h-3.56v4.75h4.14c.4,0,.76-.1,1.08-.3s.57-.48.75-.83c.18-.35.27-.74.27-1.17,0-.49-.12-.91-.35-1.28Zm0,0c-.22-.36-.54-.65-.95-.86-.41-.2-.87-.31-1.38-.31h-3.56v4.75h4.14c.4,0,.76-.1,1.08-.3s.57-.48.75-.83c.18-.35.27-.74.27-1.17,0-.49-.12-.91-.35-1.28Zm0,0c-.22-.36-.54-.65-.95-.86-.41-.2-.87-.31-1.38-.31h-3.56v4.75h4.14c.4,0,.76-.1,1.08-.3s.57-.48.75-.83c.18-.35.27-.74.27-1.17,0-.49-.12-.91-.35-1.28Zm0,0c-.22-.36-.54-.65-.95-.86-.41-.2-.87-.31-1.38-.31h-3.56v4.75h4.14c.4,0,.76-.1,1.08-.3s.57-.48.75-.83c.18-.35.27-.74.27-1.17,0-.49-.12-.91-.35-1.28Zm0,0c-.22-.36-.54-.65-.95-.86-.41-.2-.87-.31-1.38-.31h-3.56v4.75h4.14c.4,0,.76-.1,1.08-.3s.57-.48.75-.83c.18-.35.27-.74.27-1.17,0-.49-.12-.91-.35-1.28Zm0,0c-.22-.36-.54-.65-.95-.86-.41-.2-.87-.31-1.38-.31h-3.56v4.75h4.14c.4,0,.76-.1,1.08-.3s.57-.48.75-.83c.18-.35.27-.74.27-1.17,0-.49-.12-.91-.35-1.28Zm0,0c-.22-.36-.54-.65-.95-.86-.41-.2-.87-.31-1.38-.31h-3.56v4.75h4.14c.4,0,.76-.1,1.08-.3s.57-.48.75-.83c.18-.35.27-.74.27-1.17,0-.49-.12-.91-.35-1.28ZM0,183.47v22.12h217.91v-22.12H0Zm19.39,15.93c-.43.67-1.03,1.2-1.82,1.56-.79.37-1.73.55-2.82.55-.79,0-1.52-.1-2.19-.31-.67-.21-1.28-.52-1.82-.94-.55-.42-1.03-.95-1.46-1.57l1.53-1.76c.68.97,1.33,1.64,1.95,2.01s1.36.56,2.22.56c.52,0,1-.08,1.43-.25.43-.16.76-.39,1.01-.68s.38-.62.38-1c0-.24-.05-.48-.13-.7-.08-.22-.21-.42-.38-.6s-.4-.35-.67-.5c-.26-.15-.58-.29-.94-.4-.36-.12-.77-.22-1.24-.3-.75-.16-1.4-.36-1.95-.6-.55-.25-1.02-.56-1.39-.94-.37-.37-.65-.79-.83-1.27s-.27-1.01-.27-1.61.13-1.12.39-1.61c.25-.5.6-.93,1.05-1.3.45-.37.98-.65,1.59-.85s1.26-.3,1.97-.3,1.43.1,2.05.29,1.17.48,1.66.86c.48.38.88.85,1.2,1.4l-1.57,1.55c-.28-.45-.59-.84-.94-1.15-.34-.31-.72-.54-1.14-.7-.41-.16-.86-.24-1.32-.24-.54,0-1.01.08-1.41.25-.41.16-.72.4-.95.69-.22.3-.34.65-.34,1.05,0,.29.06.56.17.8s.28.45.5.64c.23.19.54.35.93.5.38.14.85.27,1.39.38.76.17,1.43.38,2.03.63.59.26,1.1.56,1.51.9.41.35.73.74.94,1.17.22.42.32.89.32,1.38,0,.93-.21,1.73-.64,2.41Zm17.1-10.45h-6.9v3.84h5.76v2.15h-5.76v4.21h6.9v2.15h-9.14v-14.5h9.14v2.15Zm16.35,12.35l-3.07-5.45h-3.31v5.45h-2.24v-14.5h6.18c.82,0,1.59.2,2.29.61.69.41,1.25.96,1.66,1.66.42.69.63,1.48.63,2.35,0,.79-.21,1.52-.63,2.2-.41.67-.96,1.22-1.65,1.62-.17.1-.34.19-.52.26l3.38,5.83-2.72-.03Zm15.75,0h-2.17l-5.81-14.5h2.55l3.46,8.81c.17.42.32.81.45,1.16.13.34.24.66.34.94.09.24.17.48.24.7.01-.06.03-.11.05-.17.11-.36.24-.76.39-1.18.14-.43.32-.92.52-1.45l3.22-8.81h2.61l-5.85,14.5Zm18.9-12.43h-2.34v10.36h2.34v2.07h-6.92v-2.07h2.34v-10.36h-2.34v-2.07h6.92v2.07Zm8.97,7.33c.24.64.58,1.19,1.02,1.64.45.46.97.81,1.59,1.05.61.24,1.29.36,2.04.36.46,0,.9-.06,1.35-.18.44-.13.85-.31,1.24-.54.39-.24.74-.51,1.06-.83l1.12,1.82c-.32.38-.75.71-1.3,1.02-.54.3-1.15.54-1.82.71-.67.18-1.35.26-2.02.26-1.01,0-1.94-.18-2.78-.54-.84-.36-1.58-.87-2.2-1.54-.62-.67-1.1-1.46-1.44-2.37-.34-.92-.5-1.92-.5-3.01s.18-2,.54-2.89c.37-.89.88-1.68,1.53-2.35.65-.68,1.4-1.2,2.26-1.58.85-.37,1.78-.56,2.77-.56.71,0,1.4.11,2.07.32.67.22,1.27.52,1.82.9.55.38.99.81,1.34,1.29l-1.5,1.56c-.4-.41-.8-.74-1.21-1.01-.41-.27-.82-.47-1.24-.61-.42-.14-.85-.21-1.28-.21-.67,0-1.31.13-1.89.38-.59.26-1.1.62-1.54,1.07-.43.46-.77,1-1.02,1.63s-.37,1.31-.37,2.06c0,.79.11,1.5.36,2.15Zm25.75-7.25h-6.9v3.84h5.76v2.15h-5.76v4.21h6.9v2.15h-9.14v-14.5h9.14v2.15Zm16.85,10.45c-.43.67-1.04,1.2-1.83,1.56-.78.37-1.72.55-2.81.55-.79,0-1.52-.1-2.19-.31s-1.28-.52-1.83-.94c-.54-.42-1.03-.95-1.46-1.57l1.54-1.76c.68.97,1.32,1.64,1.95,2.01.62.37,1.36.56,2.21.56.53,0,1-.08,1.43-.25.43-.16.77-.39,1.02-.68s.37-.62.37-1c0-.24-.04-.48-.12-.7-.09-.22-.21-.42-.39-.6-.17-.18-.39-.35-.66-.5s-.58-.29-.94-.4c-.36-.12-.78-.22-1.25-.3-.74-.16-1.39-.36-1.94-.6-.56-.25-1.02-.56-1.39-.94-.37-.37-.65-.79-.83-1.27-.18-.48-.27-1.01-.27-1.61s.13-1.12.38-1.61c.26-.5.61-.93,1.06-1.3s.98-.65,1.59-.85c.6-.2,1.26-.3,1.96-.3.75,0,1.43.1,2.06.29.62.19,1.17.48,1.65.86.49.38.89.85,1.21,1.4l-1.58,1.55c-.28-.45-.59-.84-.93-1.15-.35-.31-.73-.54-1.14-.7-.42-.16-.86-.24-1.33-.24-.54,0-1.01.08-1.41.25-.4.16-.71.4-.94.69-.23.3-.34.65-.34,1.05,0,.29.05.56.16.8.11.24.28.45.51.64.23.19.54.35.92.5.39.14.85.27,1.39.38.76.17,1.44.38,2.03.63.6.26,1.1.56,1.52.9.41.35.72.74.94,1.17.21.42.32.89.32,1.38,0,.93-.21,1.73-.64,2.41Zm31.75,1.9h-2.24v-5.94c0-1.25.03-2.37.09-3.36.03-.48.07-.96.13-1.44l-4.26,6.58h-1.37l-4.17-6.57c.06.43.09.87.12,1.32.06.97.09,2.13.09,3.47v5.94h-2.24v-14.5h2.2l4.76,7.73,4.82-7.73h2.07v14.5Zm20.58,0h-2.05l-8.45-11.07c.05.57.09,1.06.13,1.49.04.59.09,1.08.12,1.49.03.41.06.74.07,1,.02.25.03.46.03.63.01.16.01.31.01.43v6.03h-2.23v-14.5h2l8.44,11.28c-.02-.11-.03-.23-.04-.35-.04-.41-.08-.84-.12-1.31-.03-.46-.06-.95-.08-1.47s-.03-1.06-.05-1.62c-.01-.57-.02-1.16-.02-1.77v-4.76h2.24v14.5Zm17.24,0h-9.03v-14.5h2.23v12.35h6.8v2.15Zm-155.93-9.9c0-.49-.12-.91-.35-1.28-.22-.36-.54-.65-.95-.86-.41-.2-.87-.31-1.38-.31h-3.56v4.75h4.14c.4,0,.76-.1,1.08-.3s.57-.48.75-.83c.18-.35.27-.74.27-1.17Zm-.35-1.28c-.22-.36-.54-.65-.95-.86-.41-.2-.87-.31-1.38-.31h-3.56v4.75h4.14c.4,0,.76-.1,1.08-.3s.57-.48.75-.83c.18-.35.27-.74.27-1.17,0-.49-.12-.91-.35-1.28Zm0,0c-.22-.36-.54-.65-.95-.86-.41-.2-.87-.31-1.38-.31h-3.56v4.75h4.14c.4,0,.76-.1,1.08-.3s.57-.48.75-.83c.18-.35.27-.74.27-1.17,0-.49-.12-.91-.35-1.28Zm0,0c-.22-.36-.54-.65-.95-.86-.41-.2-.87-.31-1.38-.31h-3.56v4.75h4.14c.4,0,.76-.1,1.08-.3s.57-.48.75-.83c.18-.35.27-.74.27-1.17,0-.49-.12-.91-.35-1.28Zm0,0c-.22-.36-.54-.65-.95-.86-.41-.2-.87-.31-1.38-.31h-3.56v4.75h4.14c.4,0,.76-.1,1.08-.3s.57-.48.75-.83c.18-.35.27-.74.27-1.17,0-.49-.12-.91-.35-1.28Zm0,0c-.22-.36-.54-.65-.95-.86-.41-.2-.87-.31-1.38-.31h-3.56v4.75h4.14c.4,0,.76-.1,1.08-.3s.57-.48.75-.83c.18-.35.27-.74.27-1.17,0-.49-.12-.91-.35-1.28Zm0,0c-.22-.36-.54-.65-.95-.86-.41-.2-.87-.31-1.38-.31h-3.56v4.75h4.14c.4,0,.76-.1,1.08-.3s.57-.48.75-.83c.18-.35.27-.74.27-1.17,0-.49-.12-.91-.35-1.28Zm0,0c-.22-.36-.54-.65-.95-.86-.41-.2-.87-.31-1.38-.31h-3.56v4.75h4.14c.4,0,.76-.1,1.08-.3s.57-.48.75-.83c.18-.35.27-.74.27-1.17,0-.49-.12-.91-.35-1.28Zm0,0c-.22-.36-.54-.65-.95-.86-.41-.2-.87-.31-1.38-.31h-3.56v4.75h4.14c.4,0,.76-.1,1.08-.3s.57-.48.75-.83c.18-.35.27-.74.27-1.17,0-.49-.12-.91-.35-1.28Zm165.56-16.94v5.67h-20.63v-30.08h20.33v5.67h-14.01v6.32h11.95v5.5h-11.95v6.92h14.31Zm-114.93-24.41h-5.76l-11.82,30.08h6.4l2.39-6.32h11.55l2.36,6.32h6.61l-11.73-30.08Zm-6.85,18.61l1.74-4.6c.22-.66.47-1.34.73-2.02.25-.69.5-1.4.73-2.13.23-.73.45-1.44.66-2.14.21.67.43,1.38.67,2.12.26.8.51,1.56.75,2.28.24.71.45,1.3.63,1.76l1.77,4.73h-7.68Zm-13.78,5.8v5.67h-20.63v-30.08h20.33v5.67h-14.01v6.32h11.95v5.5h-11.95v6.92h14.31Zm-33-6.07c.23-.1.46-.21.68-.34,1.52-.86,2.71-2.02,3.59-3.5.87-1.47,1.31-3.12,1.31-4.92s-.44-3.47-1.31-4.9c-.88-1.43-2.07-2.57-3.59-3.42-1.52-.84-3.21-1.26-5.08-1.26h-13.32v30.08h6.23v-10.79h4.75l6.08,10.79,7.48.04-6.82-11.78Zm-11.49-12.76h5.98c.94,0,1.77.18,2.49.54.72.36,1.26.85,1.63,1.48.38.63.56,1.38.56,2.24,0,.8-.15,1.52-.47,2.17-.32.64-.77,1.14-1.35,1.5-.59.36-1.27.54-2.04.54h-6.8v-8.47ZM172.48,63.52l-63.52,63.52-7.06-7.06,56.46-56.46-21.17-21.17-42.35,42.35-21.17-21.17L123.07,14.12l7.06,7.06-42.35,42.35,7.06,7.06,42.35-42.35,35.29,35.29Zm-35.29-7.06l-42.35,42.35-35.29-35.29L116.01,7.06l-7.06-7.06-63.52,63.52,49.41,49.41,49.41-49.41-7.06-7.06Z"/>
  </g>
</svg>