<?xml version="1.0" encoding="UTF-8"?>
<svg id="Layer_2" data-name="Layer 2" xmlns="http://www.w3.org/2000/svg" viewBox="0 0 914.36 1047.67">
  <defs>
    <style>
      .cls-1 {
        fill: #b25e47;
      }

      .cls-2 {
        fill: #4bbf68;
      }

      .cls-3 {
        stroke: #53dd07;
      }

      .cls-3, .cls-4, .cls-5, .cls-6 {
        stroke-linecap: round;
        stroke-linejoin: round;
      }

      .cls-3, .cls-4, .cls-6 {
        stroke-width: 3.05px;
      }

      .cls-3, .cls-6 {
        fill: none;
      }

      .cls-7 {
        fill: #22b573;
      }

      .cls-8 {
        fill: #683f1d;
      }

      .cls-9 {
        fill: #473526;
      }

      .cls-10 {
        fill: #41b298;
      }

      .cls-4 {
        fill: #fff;
      }

      .cls-4, .cls-6 {
        stroke: #934735;
      }

      .cls-5 {
        fill: #f9f9f9;
        stroke: #ddd;
        stroke-width: 4.07px;
      }

      .cls-11 {
        fill: #a0503d;
      }

      .cls-12 {
        fill: #914839;
      }

      .cls-13 {
        fill: #604730;
      }

      .cls-14 {
        fill: #ededed;
      }
    </style>
  </defs>
  <g id="Layer_1-2" data-name="Layer 1">
    <path class="cls-7" d="m353.63,585.62c-.45,8.59-1.47,17.91-3.01,27.8-11.68,75.83-53.56,184.75-100.01,251.25-10.54,15.1-21.33,28-32.03,37.85-36.55,33.58-94.71,39.93-135.33,16.4-22.79-13.15-40.09-35.66-44.94-68.01-1.71-11.07-1.91-23.32-.41-36.75,7.77-68.87,54.7-186.9,111.32-272.09,6.47-9.81,13.11-19.17,19.82-27.96,31.99-41.92,65.86-71.15,96.79-74.32,6.51-.73,12.9-.24,19.09,1.51,51.24,14.53,73.3,54.87,68.71,144.33Z"/>
    <path class="cls-10" d="m259.78,626.73c-15.39,54.62-21.33,102.57-18.44,164.8.81,17.62,4.4,44.04,9.28,73.14-10.54,15.1-21.33,28-32.03,37.85-36.55,33.58-94.71,39.93-135.33,16.4-22.79-13.15-40.09-35.66-44.94-68.01,36.06,38.59,73.79,46.93,103.71,37.16,43.06-13.88,70.13-65.08,53.52-117.51-29.18-92.15,36.67-144.82,68.09-160.16-1.06,5.37-2.32,10.83-3.87,16.32Z"/>
    <path class="cls-7" d="m353.63,585.62c-.45,8.59-1.47,17.91-3.01,27.8-5.37-7.98-9.85-16.53-13.23-25.56-15.96-42.53-44.65-66.47-76.48-76.85-30.61-10.05-64.11-7.49-91.86,3.09,31.99-41.92,65.86-71.15,96.79-74.32,6.51-.73,12.9-.24,19.09,1.51,51.24,14.53,73.3,54.87,68.71,144.33Z"/>
    <path class="cls-1" d="m475.82,512.56c-57.96,7.08-70.46-39.36-70.82-105.7-.04-15.63.53-32.36,1.38-49.78.53-11.07,1.67-21.25,3.3-30.57,19.74-113.03,113.31-99.35,118.12-32.76,1.87,25.32,19.66,210.1-51.98,218.81Z"/>
    <path class="cls-12" d="m474.44,337.18c-3.09,44.61-35.17,67.57-69.4,69.68h-.04c-.04-15.63.53-32.36,1.38-49.78.53-11.07,1.67-21.25,3.3-30.57,18.89-8.06,67.2-25.32,64.76,10.66Z"/>
    <path class="cls-7" d="m698.88,776.78c-3,10.14-5.47,20.5-7.25,31.1-.48,2.89-.96,5.73-1.39,8.57-17.77,110.73-19.99,213.41-21.2,224.06-1.3,10.94-100.37,7.01-174.13,3.38-28.72-1.44-65.89-1.02-100.94-.77-54.87.44-104.62.57-108.77-7.21-2.67-5.03-9.77-34.54-17.52-72.35-1.2-5.87-2.44-11.91-3.68-18.11-.62-3.1-1.24-6.24-1.81-9.38-.7-3.59-1.39-7.22-2.08-10.85-.73-3.83-1.47-7.71-2.2-11.62-1.58-8.65-3.16-17.37-4.65-26.06-1.5-8.64-2.87-17.21-4.21-25.57-4.58-29.15-7.88-55.6-8.51-73.24-2.24-62.26,4.21-110.14,20.17-164.6.42-1.38.8-2.72,1.14-4.1.63-2.31,1.19-4.63,1.74-6.94.3-1.22.55-2.44.81-3.65.26-1.22.51-2.44.73-3.66.26-1.22.47-2.44.69-3.62.22-1.22.39-2.4.57-3.62.39-2.36.7-4.71,1.01-7.03.67-5.77,1.14-11.43,1.36-16.96.05-.77.06-1.51.06-2.24.16-3.91.16-7.77.12-11.6-.33-19.01-2.83-36.7-5.88-52.29-5.68-29.37-13.26-51.47-11.4-61.62.91-5,6.11-8,15.2-9.32.61-.12,1.26-.15,1.87-.22,22.29-2.62,65.41,3.74,123.98,15.83,0,0,2.69-27.73,6.23-39.05,1.43-4.63,4.83-6.42,9.31-6.78,6.4-.58,15.04,1.75,23.34,2.52,14.07,1.29,61.99-7.45,86.63-20.42,6.55-3.47,11.82-5.21,16.1-5.61,11.82-1.1,15.91,8.23,17.45,20.94.08.53.11,1.1.19,1.67s.11,1.18.18,1.79c.11,1.14.18,2.32.29,3.54.07.9.14,1.79.22,2.77.07,1.22.14,2.44.21,3.71.07,1.51.13,3.01.2,4.56.07,1.43.13,2.85.16,4.32.03.73.03,1.47.06,2.24.03.61.03,1.26.06,1.87.03.86.02,1.71.05,2.56.03,1.1.06,2.16.05,3.22.03,1.06.06,2.12.05,3.13.03.69.03,1.38.02,2.04.11,9.24.03,16.2.03,16.2,44.54-16.87,111.68-34.12,162.56-2.85.08.04.16.08.24.12,15.08,9.36,28.74,22.93,39.86,42.02,2.52,4.26,4.91,8.8,7.14,13.63,41.91,90.32-35.46,167.09-64.45,265.53Z"/>
    <path class="cls-2" d="m756.19,497.62c-42.96,5.25-91.04,33.16-136.17,86.78-7.01,8.31-13.94,17.23-20.8,26.81-72.54,101.53-198.89,74.6-247.53.58-5.29-8.03-9.68-16.63-12.96-25.7-15.51-42.7-43.95-66.93-75.67-77.64-5.68-29.37-13.26-51.47-11.4-61.62.91-5,6.11-8,15.2-9.32.61-.12,1.26-.15,1.87-.22,22.29-2.62,65.41,3.74,123.98,15.83,0,0,2.69-27.73,6.23-39.05,1.43-4.63,4.83-6.42,9.31-6.78,6.4-.58,15.04,1.75,23.34,2.52,14.07,1.29,61.99-7.45,86.63-20.42,6.55-3.47,11.82-5.21,16.1-5.61,11.82-1.1,15.91,8.23,17.45,20.94.08.53.11,1.1.19,1.67s.11,1.18.18,1.79c.11,1.14.18,2.32.29,3.54.07.9.14,1.79.22,2.77.07,1.22.14,2.44.21,3.71.07,1.51.13,3.01.2,4.56.07,1.43.09,2.89.16,4.32.03.73.03,1.47.06,2.24.03.61.03,1.26.06,1.87.03.86.02,1.71.05,2.56.03,1.1.06,2.16.05,3.22.03,1.06.06,2.12.05,3.13.03.69.03,1.34.02,2.04.11,9.24.03,16.2.03,16.2,44.54-16.87,111.68-34.12,162.56-2.85.08.04.16.08.24.12,15.08,9.36,28.74,22.93,39.86,42.02Z"/>
    <path class="cls-3" d="m267.43,572.48c-.16,12.17-1.26,24.87-3.79,37.93-1.06,5.37-2.32,10.83-3.87,16.32-15.39,54.62-21.33,102.57-18.44,164.8.81,17.62,4.4,44.04,9.28,73.14,1.38,8.34,2.89,16.89,4.48,25.52,4.76,25.93,10.13,52.51,15.22,75.87,8.14,37.73,15.55,67.16,18.28,72.17"/>
    <path class="cls-10" d="m691.3,814.53c-16.61,110.91-17.75,213.61-18.85,224.27-1.18,10.95-100.29,8.06-174.08,5.21-28.74-1.14-65.9-.33-100.94.28,28.82-23.97,88.36-63.37,145.51-38.46,79.29,34.6,116.69-74.53,68.26-84.29-48.44-9.77-50.71-64.8-60.36-109.37l39.6-16.04,100.86,18.4Z"/>
    <path class="cls-3" d="m389.97,454.31c-.82,14.49,0,25.81,0,25.81"/>
    <path class="cls-3" d="m550.83,456.25c-.59,16.92-1.4,27.95-1.4,27.95"/>
    <path class="cls-3" d="m428.39,482.36c21.79,6.25,55.26,6.62,74.39,0"/>
    <path class="cls-7" d="m899.37,879.78c-22.3,28.53-83.64,34.03-133.42-5.7-12.74-10.18-24.75-23.36-35.13-39.85-5.49-8.71-12.54-21.94-20.43-37.53-3.46-6.92-7.12-14.29-10.87-21.94-20.92-42.82-44.81-94.75-60.2-124.43-7.41-14.33-13.15-30.49-17.01-47.34-1.51-6.51-2.73-13.15-3.66-19.78-11.48-79.94,17.22-163.91,94.71-129.92.08.04.16.08.24.12,15.43,6.8,31.87,21.49,48.35,40.82,40.05,46.93,80.26,121.37,105.91,177.46,5.82,12.74,10.87,24.5,15.02,34.8,29.96,74.36,44.49,137.37,16.48,173.27Z"/>
    <path class="cls-10" d="m781.7,753.44c-1.75,27.92-34.56,39.44-71.31,43.27-3.46-6.92-7.12-14.29-10.87-21.94-20.92-42.82-44.81-94.75-60.2-124.43-7.41-14.33-13.15-30.49-17.01-47.34,31.63.65,65.82,12.17,68.99,66.22,2.16,36.88,94.39,20.27,90.4,84.21Z"/>
    <path class="cls-7" d="m761.96,494.25c-2.69.12-5.37.41-8.06.77-42.9,5.7-90.68,34.11-135.25,88.2-11.48-79.94,17.22-163.91,94.71-129.92.08.04.16.08.24.12,15.43,6.8,31.87,21.49,48.35,40.82Z"/>
    <path class="cls-3" d="m730.82,834.23c-5.49-8.71-12.54-21.94-20.43-37.53-3.46-6.92-7.12-14.29-10.87-21.94-20.92-42.82-44.81-94.75-60.2-124.43-7.41-14.33-13.15-30.49-17.01-47.34-1.51-6.51-2.73-13.15-3.66-19.78"/>
    <path class="cls-10" d="m899.37,879.78c-22.3,28.53-83.64,34.03-133.42-5.7,11.27-3.54,24.1-5.21,38.02-3.17,50.67,7.37,100.66-13.35,61.7-72.49-31.5-47.83-9-107.86,2.2-126.71,5.82,12.74,10.87,24.5,15.02,34.8,29.96,74.36,44.49,137.37,16.48,173.27Z"/>
    <path class="cls-9" d="m574,123.78c-9.48,6.72-15.34,7.81-15.1,18.15.28,10.34-4.19,13.15-8.63,14.82-4.48,1.67.53,9.2-.85,16.48-1.38,7.24-20.11,14.25-20.11,14.25l-124.3-58.37c-10.34-12.58-5.86-19.58-2.52-26.29.73-1.47.69-2.81.12-4.11-1.75-4.72-9.32-8.79-7.37-14.04,2.48-6.68,9.2-7.82,17.01-8.1,7.86-.28,6.27-22.63,2.56-28.49-3.66-5.86-.85-20.68,11.68-19.82,12.58.85,17.34-1.67,18.44-7.53,1.14-5.86,11.76-13.96,21.53-8.95,9.77,5.05,18.15-.57,24.01-6.15.33-.33.73-.65,1.14-.94,6.43-5.01,19.9-7.73,25.4.94,5.86,9.24,12.86,12.86,24.58,13.68,11.72.85,15.1,10.62,12.58,20.39-2.52,9.81,1.1,13.15,8.67,17.62,7.53,4.48,12.01,18.97,8.34,27.07-3.62,8.14-.81,14,2.81,17.62,3.62,3.62,9.48,15.06,0,21.78Z"/>
    <path class="cls-13" d="m526.66,283.57c-9.16,3.91-19.74,6.15-31.14,5.62-42.7-1.99-146.94,36.59-146.94,36.59-17.5,2.16-28.17,8.18-20.23,16.93,7.94,8.75,15.3,33.9-4.92,35.98-4.56.45-8.55.49-11.97.2-11.89-1.06-17.14-6.06-15.67-10.7,1.91-6.02,14.77-4.68,17.22-7.12,2.48-2.48,3.01-7.94-4.92-15.34-7.9-7.37-13.68-18.85-5.45-30.49,8.22-11.64,24.34-22.3,14.49-30.53-9.85-8.18-17.79-15.59-13.68-25.44,4.11-9.85,27.35-23.81,16.69-35.82-10.66-12.05-20.23-27.64.57-46.52,20.8-18.89,41.84-15.3,38.83-31.46-3.01-16.16-.53-31.75,21.9-27.92,22.43,3.83,25.72,2.2,35.57-3.26,9.85-5.49,22.96-2.48,35.57,8.47,12.58,10.95,24.62-1.38,39.93,1.63,15.3,3.01,0,17.79,19.41,21.08,19.41,3.3,26.01,4.11,28.21,22.71,2.16,18.6,15.06,18.8,17.75,24.62,5.49,11.76-3.26,19.98-5.74,26.82-2.44,6.84,2.97,11.15,7.29,18.36,7.08,11.8-7.61,34.88-32.77,45.59Z"/>
    <path class="cls-9" d="m533.42,250.69c-.98,9.65-3.7,21.57-6.76,32.89-9.16,3.91-19.74,6.15-31.14,5.62-42.7-1.99-146.94,36.59-146.94,36.59-17.5,2.16-28.17,8.18-20.23,16.93,7.94,8.75,15.3,33.9-4.92,35.98-4.56.45-8.55.49-11.97.2,15.18-2.48,19.21-13.31,11.4-27.6-10.79-19.66-6.88-31.34,3.91-42.62,10.75-11.23-6.88-37.89,0-51.94,6.84-14.04,18.56-19.01,13.88-40.17-4.68-21.17-2.36-31.46,14.49-43.14,16.85-11.72,30.81-14.04,39.77-28.08,8.91-14.04,32.32-22.92,40.3-6.11,7.94,16.85,10.5,28.21,32.85,21.37,22.39-6.84,37.36,1.59,29.39,20.76-7.94,19.21-4.19,37.45,9.85,39.81,14.04,2.32,28.82,2.85,26.13,29.51Z"/>
    <path class="cls-1" d="m517.38,314.95c-84.01,61.09-120.19,81.2-160.37,47.42-18.72-15.71-21.98-47.78-18.28-80.51,1.34-11.72,3.54-23.57,6.31-34.72,5.45-22.47,12.9-42.29,19.17-53.56,18.11-32.56,59.51-34.19,63.66-32.56,4.19,1.59,5.49,4.03,1.47,13.68-4.03,9.65.41,16.48,12.05,16.85,11.68.41,24.95,8.47,23.73,20.11-1.22,11.68,3.22,22.1,14.08,28.94,10.83,6.84,8.83,17.3,10.42,23.73,1.63,6.43,14.9,13.68,18.52,4.8,3.62-8.83,24.5-27.72,41.39-10.42,16.89,17.26,1.99,57.47-32.15,56.25Z"/>
    <path class="cls-11" d="m416.69,271.27c4.06,8.4,18.61,9.78,32.51,3.07,13.9-6.71,21.87-18.96,17.81-27.36-4.06-8.4-18.61-9.78-32.51-3.07-13.9,6.71-21.87,18.96-17.81,27.36Z"/>
    <path class="cls-11" d="m360.07,278.61c-3.83,5.37-12.29,6.35-21.33,3.26,1.34-11.72,3.54-23.57,6.31-34.72.73.45,1.47.94,2.2,1.47,12.54,9,18.28,22.43,12.82,30Z"/>
    <path class="cls-8" d="m358.43,237.99c0,3.17,2.57,5.74,5.74,5.74s5.74-2.57,5.74-5.74-2.57-5.74-5.74-5.74-5.74,2.57-5.74,5.74Z"/>
    <path class="cls-8" d="m393.55,241.03c0,3.17,2.57,5.74,5.74,5.74s5.74-2.57,5.74-5.74-2.57-5.74-5.74-5.74-5.74,2.57-5.74,5.74Z"/>
    <path class="cls-6" d="m514.29,289.21c1.12-12.35,15.25-29.42,30.5-16.8"/>
    <path class="cls-6" d="m514.81,286.15c10.58-18.18,31.82,6.73,7.04,11.65"/>
    <path class="cls-6" d="m374.87,274.84c-6.29-2.93-8.8-8.66-8.24-10.06.56-1.4,20.25-15.92,16.48-38.27"/>
    <path class="cls-13" d="m399.29,198.6c-1.78,11.62,26.5,23.02,30.86,15.67,3.73-6.29-28.24-32.79-30.86-15.67Z"/>
    <path class="cls-13" d="m351.77,206.25c.27,3.35,30.66,2.68,30.22-9.03-.45-11.71-31-.78-30.22,9.03Z"/>
    <path class="cls-4" d="m377.84,286.61c14.22-3.34,30.72-10.88,30.72-10.88,0,0,3.14,19.45-9.27,23-13.51,3.86-20.75-8.08-21.45-12.11Z"/>
    <path class="cls-13" d="m537.69,76.56c-4.68,14.49-21.53-.49-22.87,20.19-1.34,20.64-42.66,14.9-55.27-5.21-10.38-16.53-39.68-10.34-56.94,7.16-1.75-4.72-9.32-8.79-7.37-14.04,2.48-6.68,9.2-7.82,17.01-8.1,7.86-.28,6.27-22.63,2.56-28.49-3.66-5.86-.85-20.68,11.68-19.82,12.58.85,17.34-1.67,18.44-7.53,1.14-5.86,11.76-13.96,21.53-8.95,9.77,5.05,18.15-.57,24.01-6.15.33-.33.73-.65,1.14-.94,4.8,13.68,8.3,32.32,26.9,33.95,26.21,2.36,23.85,23.4,19.17,37.93Z"/>
    <path class="cls-2" d="m0,474.52c2.31-14.85,44.03-25.9,68.28-30.53l9.27,59.9S10.88,494.35,0,474.52Z"/>
    <g>
      <path class="cls-1" d="m38.77,506.38c-4.73-64.9-4.73-119.45-6.15-140.13-1.43-20.68-.34-42.68,24-52.72,0,0-.17-19.12,27.78-22.68,0,0-3.51-17.15,19.67-16.67,0,0,.25-12.59,12.94-10.39,15.21,2.63,20.08,11.95,20.08,11.95,20.15-4.31,31.42,16.58,30.43,33.82-.99,17.24-2.32,36.14-10.61,53.38-8.29,17.24-18.9,46.08-18.9,46.08l.66,36.47s-15.48,117.17-99.91,60.91Z"/>
      <path class="cls-6" d="m32.62,366.25c-1.43-20.68-.34-42.68,24-52.72,0,0-.17-19.12,27.78-22.68,0,0-3.51-17.15,19.67-16.67,0,0,.25-12.59,12.94-10.39,15.21,2.63,20.08,11.95,20.08,11.95,20.15-4.31,31.42,16.58,30.43,33.82"/>
      <g>
        <path class="cls-6" d="m137.1,275.73c-20.75,10.2-35.94,29.38-29.74,38.78,6.2,9.39,29.78-2.4,32.98-5.4"/>
        <path class="cls-6" d="m102.32,274.18c7.82,1.03,23.28,9.74,23.28,9.74"/>
        <path class="cls-6" d="m84.4,290.84c11.84-.48,26.13,6.76,26.13,6.76"/>
        <path class="cls-6" d="m106.95,341.18c6.92-5.28,12.92-14.54,11.1-23.11"/>
        <path class="cls-6" d="m56.62,313.53c16.58-6.79,33.39-14.52,38.37-3.2,4.98,11.31,7.73,46.08,0,50.77-7.73,4.69-20.69.83-22.9-8.28-2.21-9.1-3.86-21.52-3.86-21.52"/>
        <path class="cls-6" d="m87.33,363.08c6.97,8.6,4.69,39.03-2.94,49.17"/>
      </g>
    </g>
    <path class="cls-7" d="m142.02,888.08c-13.59,25.6-32.85,39.56-58.77,30.85-.04,0-.12-.04-.16-.04-48.84-16.57-68.26-63.37-75.38-109.12-.04,0-.04-.04-.04-.04-7.45-47.74-1.59-94.31-1.83-104.2C5.35,686.12.01,474.51.01,474.51c8.47,3.38,21.29,3.46,36.79.57,10.54-1.99,22.3-5.37,34.72-10.01,21.33-8.02,44.61-19.9,66.87-35.09.28-.2.61-.41.9-.61,0,0,4.23,52.42,9.93,112.7,4.84,51.65,10.79,109.04,16.08,144.17,8.51,56.66,3.46,151.62-23.28,201.84Z"/>
    <path class="cls-2" d="m142.02,888.08c-13.59,25.6-32.85,39.56-58.77,30.85-.04,0-.12-.04-.16-.04-48.84-16.57-68.26-63.37-75.38-109.12,9.89,16.44,20.19,30.04,30.61,41.15,36.06,38.59,73.79,46.93,103.71,37.16Z"/>
    <path class="cls-3" d="m139.29,429.38s14.58,180.76,26.02,256.85c5.9,39.26,5.27,96.92-4.55,145.33"/>
    <path class="cls-14" d="m655.42,646.82l-173.55-72.48c-13.69-5.72-29.42.74-35.13,14.43l-103.05,246.74c-5.72,13.69.74,29.42,14.43,35.13l173.55,72.48c13.69,5.72,29.42-.74,35.13-14.43l103.05-246.74c5.72-13.69-.74-29.42-14.43-35.13Z"/>
    <path class="cls-5" d="m635.93,638.68l-154.06-64.35c-13.69-5.72-29.42.74-35.13,14.43l-103.05,246.74c-5.72,13.69.74,29.42,14.43,35.13l154.06,64.35c13.69,5.72,29.42-.74,35.13-14.43l103.05-246.74c5.72-13.69-.74-29.42-14.43-35.13Z"/>
    <path class="cls-14" d="m492.05,615.43c0,6.46-5.24,11.7-11.7,11.7s-11.7-5.24-11.7-11.7,5.24-11.7,11.7-11.7,11.7,5.24,11.7,11.7Z"/>
    <path class="cls-14" d="m511.36,627.13c0,3.22-2.61,5.83-5.83,5.83s-5.83-2.61-5.83-5.83,2.61-5.83,5.83-5.83,5.83,2.61,5.83,5.83Z"/>
    <path class="cls-2" d="m502.78,820.99c-11.46-3.99-17.39-26.16-18.93-45.26l45,5.27s.32,42.89-26.07,39.99Z"/>
    <g>
      <g>
        <path class="cls-1" d="m517.9,809.72c-22.12-15.37-34.46-22.58-39.58-25.38-5.12-2.79-34.22-6.05-54.48-17.23-20.26-11.18-39.35-25.61-39.35-25.61l-8.02,14.9s-15.73-17-18.06-32.37c-2.33-15.37,3.96-15.83,7.68-19.09,3.73-3.26,1.4-8.15,1.16-16.06s6.52-9.55,8.61-12.34c2.1-2.79.23-10.01-.23-19.79-.47-9.78,11.18-10.24,13.04-15.83,1.86-5.59,3.49-23.51,19.32-18.86,15.83,4.66,84.75,55.88,89.4,58.2,4.66,2.33,20.49,5.82,20.49,5.82,0,0,56.34,88.24,0,123.63Z"/>
        <path class="cls-6" d="m384.5,741.5l-8.02,14.9s-15.73-17-18.06-32.37c-2.33-15.37,3.96-15.83,7.68-19.09,3.73-3.26,1.4-8.15,1.16-16.06s6.52-9.55,8.61-12.34c2.1-2.79.23-10.01-.23-19.79-.47-9.78,11.18-10.24,13.04-15.83,1.86-5.59,3.49-23.51,19.32-18.86"/>
      </g>
      <path class="cls-6" d="m384.5,741.5c-7.9-6.58-9.53-7.67-9.53-7.67"/>
    </g>
    <path class="cls-7" d="m908.16,867.9c-14.45,44.37-68.3,83.64-191.06,37.24-2.2-.85-4.44-1.71-6.72-2.6-127.52-50.43-207.62-81.57-207.62-81.57,0,0,18.6-66.79,0-141.93,73.26,20.51,267.09,60.28,335.92,80.47,4.56,1.34,8.91,2.77,12.98,4.31,57.76,21.49,70.46,61.09,56.49,104.08Z"/>
    <path class="cls-3" d="m710.39,902.54c-127.52-50.43-207.61-81.55-207.61-81.55"/>
    <path class="cls-3" d="m502.78,679.04c66.49,18.6,232.33,53.09,313.84,74.4"/>
    <path class="cls-2" d="m908.16,867.9c-14.45,44.37-68.3,83.64-191.06,37.24,0,0,36.18-41.6,86.86-34.23,50.67,7.37,100.66-13.35,61.7-72.49-7.33-11.07-11.72-22.83-14-34.6,57.76,21.49,70.46,61.09,56.49,104.08Z"/>
  </g>
</svg>