<?xml version="1.0" encoding="UTF-8"?>
<svg id="Layer_2" data-name="Layer 2" xmlns="http://www.w3.org/2000/svg" xmlns:xlink="http://www.w3.org/1999/xlink" viewBox="0 0 1130.89 1116.4">
  <defs>
    <style>
      .cls-1 {
        fill: #ddd;
      }

      .cls-2, .cls-3, .cls-4, .cls-5, .cls-6, .cls-7, .cls-8 {
        stroke-linecap: round;
        stroke-linejoin: round;
      }

      .cls-2, .cls-3, .cls-6, .cls-9, .cls-10, .cls-8 {
        fill: none;
      }

      .cls-2, .cls-4, .cls-7 {
        stroke: #934735;
        stroke-width: 3.52px;
      }

      .cls-11, .cls-7 {
        fill: #b25e47;
      }

      .cls-12, .cls-4 {
        fill: #fff;
      }

      .cls-13 {
        fill: #4bbf68;
      }

      .cls-3, .cls-5 {
        stroke: #ddd;
      }

      .cls-3, .cls-6 {
        stroke-width: 9.39px;
      }

      .cls-14 {
        fill: #fed81d;
      }

      .cls-5 {
        fill: #f9f9f9;
        stroke-width: 4.69px;
      }

      .cls-6 {
        stroke: #ededed;
      }

      .cls-15 {
        fill: #22b573;
      }

      .cls-16 {
        fill: #683f1d;
      }

      .cls-17 {
        fill: #473526;
      }

      .cls-18 {
        fill: #41b298;
      }

      .cls-10 {
        clip-path: url(#clippath);
      }

      .cls-19 {
        fill: #a0503d;
      }

      .cls-20 {
        fill: #914839;
      }

      .cls-8 {
        stroke: #53dd07;
        stroke-width: 3.05px;
      }

      .cls-21 {
        fill: #604730;
      }

      .cls-22 {
        fill: #7fce91;
      }

      .cls-23 {
        fill: #ededed;
      }
    </style>
    <clipPath id="clippath">
      <path class="cls-9" d="m54.16,189.81v700.68s999.11,0,999.11,0V189.81c0-39.04-31.63-70.67-70.67-70.67H124.78c-38.99,0-70.62,31.63-70.62,70.67Z"/>
    </clipPath>
  </defs>
  <g id="Layer_1-2" data-name="Layer 1">
    <path class="cls-6" d="m54.16,189.81v700.68s999.11,0,999.11,0V189.81c0-39.04-31.63-70.67-70.67-70.67H124.78c-38.99,0-70.62,31.63-70.62,70.67Z"/>
    <path class="cls-3" d="m54.16,189.81v3.16s999.11,0,999.11,0v-3.16c0-39.04-31.63-70.67-70.67-70.67H124.78c-38.99,0-70.62,31.63-70.62,70.67Z"/>
    <path class="cls-23" d="m189.38,156.06c0,7.1,5.75,12.85,12.85,12.85s12.85-5.75,12.85-12.85-5.75-12.85-12.85-12.85-12.85,5.75-12.85,12.85Z"/>
    <path class="cls-1" d="m147.45,156.06c0,7.1,5.75,12.85,12.85,12.85s12.85-5.75,12.85-12.85-5.75-12.85-12.85-12.85-12.85,5.75-12.85,12.85Z"/>
    <path class="cls-23" d="m105.52,156.06c0,7.1,5.75,12.85,12.85,12.85s12.85-5.75,12.85-12.85-5.75-12.85-12.85-12.85-12.85,5.75-12.85,12.85Z"/>
    <path class="cls-18" d="m1032,494.46c2.55-29.31-126.83-84.84-148.09-41.98l42.07,41.98s87.41,34.56,106.02,0Z"/>
    <path class="cls-11" d="m968.69,284.95c18.87-58.4,20.21-65.58,7.64-70.08-12.58-4.49-44.47,61.99-48.06,70.08-3.59,8.09-20.73,41.64-29.04,80.16-5.59,25.92-12.91,85.58-14.08,99.97-4.94,60.64,95.04,79.06,99.4,31.89,4.36-47.17,4.81-62.44,4.81-62.44,0,0,51.66,4.94,58.85-33.69,7.19-38.63,5.07-91.19,5.07-91.19,0,0,78.48-13.03,75.79-33.69-2.7-20.66-156.32,21.11-156.32,21.11l-4.04-12.13Z"/>
    <path class="cls-2" d="m1053.27,309.65s78.48-13.03,75.79-33.69c-2.7-20.66-156.32,21.11-156.32,21.11l-4.04-12.13c18.87-58.4,20.21-65.58,7.64-70.08-12.58-4.49-44.47,61.99-48.06,70.08"/>
    <path class="cls-2" d="m972.74,297.08c6.38,21.57,6.03,50.41-3.23,78.19"/>
    <path class="cls-16" d="m1009.51,252.27c-12.3,6.38-22.01,7.75-25.68-9.78-3.67-17.53,13.66-17.98,19.21-17.05,8.62,1.43,11.75,24.1,6.47,26.84Z"/>
    <path class="cls-16" d="m1007.04,247.79c2.77,9.4,4.79,21.14,4.71,20.79-2.04,1.02-13.86,5.1-15.7,1.02-1.83-4.08-3.87-21.81-3.87-21.81h14.86Z"/>
    <path class="cls-16" d="m1018.17,274.42c6.45,28.74,39.68,186.46,40.78,191.6,1.1,5.14-.37,29.03-2.39,29.94-2.02.92-13.58-16.17-17.81-24.8-4.23-8.63-41.58-181.72-43.91-189.77-5.69-19.66,19.11-25.8,23.33-6.98Z"/>
    <path class="cls-7" d="m1047.42,363.93c16.11,3.71,20.67,19.05,8.8,29.24-12.78,10.98-44.22,6.06-45.68-7.95-1.47-14.02,23.47-24.38,36.88-21.29Z"/>
    <path class="cls-7" d="m1048.88,338.76c16.51-2.42,20.57,13.89,8.76,26.77-11.82,12.88-50.67,15.51-52.86.47-2.19-15.04,33.97-25.75,44.1-27.24Z"/>
    <path class="cls-7" d="m1063.47,310.53c-20.72-4.92-65.64,25.58-63.88,35.02,2.22,11.87,23.32,13.67,53.41.94,28.19-11.93,20.65-33.54,10.47-35.96Z"/>
    <g id="body">
      <g class="cls-10">
        <path class="cls-15" d="m64.83,539.26c64.38-3.16,117.72,54.94,134.23,121.66.48,1.86.91,3.9,1.3,6.11,1.52,8.19,2.73,18.76,3.68,31.02,6.85,88.08.39,263.34-.26,267.37-.26,1.43,45.58-.13,109.1-2.99,23.4-1.08,49.22-2.3,76.04-3.64,136.52-6.72,298.65-15.77,298.65-15.77l9.83-109.44s20.41,34.53,90.25,101.99c69.84,67.5,181.54,29.85,169.54-54.98-7.54-53.25-38.99-92.24-77.08-157.45-11.79-20.19-24.22-42.89-36.74-69.28-16.68-35.14-32.93-68.63-48.44-98.91-6.8-13.34-13.52-26.04-20.02-38-24.52-45.19-46.49-79.42-64.17-95.41-53.21-48.14-167.15-20.41-197.53-10.66-30.37,9.75-72.44,21.62-139.82,26.34-67.37,4.72-169.62,33.75-223.78,52.6-52.47,18.2-82.84,47.53-84.7,49.35-.04.04-.09.09-.09.09Z"/>
        <path class="cls-22" d="m19.51,639.22c58.94-59.16,148.46-84.98,238.3-4.92,104.48,93.11,184.65,109.27,302.15-26.65,85.01-98.31,114.5-123.39,214.95-90.7-24.52-45.19-46.49-79.42-64.17-95.41-53.21-48.14-167.15-20.41-197.53-10.66-30.37,9.75-72.44,21.62-139.82,26.34-67.37,4.72-169.62,33.75-223.78,52.6-52.47,18.2-82.84,47.53-84.7,49.35-.04.04-.09.09-.09.09-23.14,18.5-36.87,55.67-45.32,99.95Z"/>
        <path class="cls-18" d="m796.61,808.37c37.43,40.73,71.32-47.62,83.49-85.22-11.79-20.19-24.22-42.89-36.74-69.28-16.68-35.14-32.93-68.63-48.44-98.91-27.69,42.33,9.75,81.11,12.35,100.26,6.89,51.21-64.47,94.67-10.66,153.16Z"/>
        <path class="cls-13" d="m1032,494.46c-58.02,12.21-148.09-41.98-148.09-41.98,0,0-49.62,221.61-62.6,270.73-12.98,49.12-95.85,241.65,65.69,249.54,103.68,5.07,110.65-192.03,116.76-256.91,6.11-64.89,28.24-221.37,28.24-221.37Z"/>
        <path class="cls-8" d="m993.53,519.78c-44.63,3.14-94.32-26.88-94.32-26.88"/>
        <path class="cls-8" d="m883.9,452.48s-49.62,221.61-62.6,270.73c-7.08,26.8-34.97,96.28-32.61,155.18"/>
        <path class="cls-12" d="m559.96,446.8c-28.9,53.66-105.6,105.21-198.14,34.03,0,0-9.98-29.56-8.94-29.56s194.01-23.39,194.01-23.39l13.07,18.92Z"/>
        <path class="cls-14" d="m483.78,380.51c23.84-5.37,58.42.67,82.26,37.27,23.84,36.6,26.86,66.81,25.52,66.48-1.34-.34-37.34-23.17-53.75-21.49-16.42,1.68-52.48,12.36-52.48,12.36l-1.54-94.62Z"/>
        <path class="cls-14" d="m376.35,391.25s-52.71.34-59.76,37.27c-7.05,36.93,12.42,81.25,36.26,101.73,23.84,20.48,10.74-29.55,96.36-53.05l-72.86-85.95Z"/>
        <path class="cls-11" d="m350.63,434.46s29.29,44.5,94.53,45.48c65.2,1.03,77.78-37.88,77.78-37.88-7.09-17.65-15.58-55.29-21.03-81.67-3.47-16.66-5.73-28.87-5.73-28.87,0,0-10.8-104.48-122.79-98.19l-1.92,17.13-20.84,184Z"/>
        <path class="cls-20" d="m501.91,361.23c-3.47-16.64-5.72-28.86-5.72-28.86h.09c-.09,0-63.73-29.9-63.73-29.9,0,0-10.18,72.96,69.37,58.75Z"/>
        <path class="cls-8" d="m697.4,833.56c9.01-102.88,9.01-186.22,9.01-186.22"/>
      </g>
    </g>
    <path class="cls-13" d="m271.84,1083.79c5.81-2.17,10.96-4.81,15.51-7.84,32.67-21.53,35.44-63.52,25.52-113.52-7.67-38.3-22.79-81.32-37.61-123.48-16.85-48.05-33.36-94.93-38-132.49-.65-5.24-1.04-10.27-1.21-15.08-.95-29.46-6.46-58.66-15.64-84.57-26.95-75.73-85.66-123.44-155.5-67.63-.04.04-.09.09-.09.09-23.14,18.5-36.87,55.67-45.32,99.95-3.03,15.81-5.37,32.54-7.28,49.65v.13c-6.41,58.01-7.32,120.4-10.18,166.85-13.95,224.87,39.95,314.68,269.8,227.94Z"/>
    <path class="cls-22" d="m19.51,639.22c50.74-50.91,124.17-77.12,200.91-32.41-26.95-75.73-85.66-123.44-155.5-67.63-.04.04-.09.09-.09.09-23.14,18.5-36.87,55.67-45.32,99.95Z"/>
    <path class="cls-18" d="m203.78,965.42c-.26,1.43,45.58-.13,109.1-2.99,23.4-1.08,49.22-2.3,76.04-3.64,45.93-20.67,74.48-50.56,50-93.41-66.55-116.46-188.82,44.89-195.19-70.58-4.33-79.07-23.53-96.23-39.69-96.75,6.85,88.08.39,263.34-.26,267.37Z"/>
    <path class="cls-8" d="m188.14,626.6c8.38,20.27,14,44.08,15.9,71.46,6.11,88.14.39,263.34-.26,267.37"/>
    <path class="cls-18" d="m271.84,1083.79c5.81-2.17,10.96-4.81,15.51-7.84-52.64,11.31-131.32,21.49-166.11-8.1-54.68-46.58-19.93-106.28-50.17-139.12-30.2-32.84-73.83-43.5-58.84-239.73-6.41,58.01-7.32,120.4-10.18,166.85-13.95,224.87,39.95,314.68,269.8,227.94Z"/>
    <path class="cls-1" d="m403.54,688.88c-8.35-37.58,38.84-35.91,38.84-35.91-4.18-34.66,41.76-44.26,52.35-10.44,37.32-11.27,49.12,0,54.55,19.63l-145.74,26.73Z"/>
    <circle class="cls-5" cx="467.2" cy="645.44" r="11.15"/>
    <polygon class="cls-5" points="620.17 634.3 689.82 1011.97 413.25 1067.84 338.97 689.63 620.17 634.3"/>
    <path class="cls-18" d="m534.97,884.54c14.1,36.76,14.9,75.38,8.46,88.3,0,0-26.4,4.9-52.77-66.65l44.32-21.65Z"/>
    <path class="cls-11" d="m499.16,813.46c63.26-21.71,93.51-34.87,104.9-37.93,11.4-3.07,52.61-6.58,59.18,0,6.58,6.58,7.01,14.91,4.82,23.67-2.19,8.77,4.82,15.15,5.7,24.01.88,8.87-9.64,11.5-7.45,20.26,2.19,8.77,9.21,18.41,4.38,28.06-4.82,9.64,4.82,19.73-4.38,31.56-9.21,11.84-102.42,17.54-122.89,13.15l-40.19,17.97s-70.84-72.75-4.07-120.76Z"/>
    <path class="cls-2" d="m604.06,775.53c11.4-3.07,52.61-6.58,59.18,0,6.58,6.58,7.01,14.91,4.82,23.67-2.19,8.77,4.82,15.15,5.7,24.01.88,8.87-9.64,11.5-7.45,20.26,2.19,8.77,9.21,18.41,4.38,28.06-4.82,9.64,4.82,19.73-4.38,31.56"/>
    <path class="cls-13" d="m121.2,1067.81l.04.04c16.46,29.72,57.71,44.06,135.87,20.45,21.14-6.37,41.51-13,61-19.71,32.28-11.09,62.09-22.4,88.78-33.23,83.79-33.88,136.52-62.52,136.52-62.52,0,0-15.08-15.08-27.95-44.06-3.86-8.62-7.5-18.5-10.48-29.59-6.24-23.31-9.62-51.99-5.81-85.7-10.66,3.21-22.1,6.46-34.14,9.75-29.16,7.97-61.83,16.25-94.93,24.96-99.17,26.13-202.34,56.06-227.47,93.28-2.3,3.42-4.51,6.89-6.54,10.44-.82,1.39-1.65,2.82-2.43,4.25-.22.39-.43.74-.61,1.13-.95,1.69-1.82,3.42-2.69,5.16-1.56,3.03-2.99,6.07-4.33,9.14-14.82,33.84-18.98,70.71-4.85,96.23Z"/>
    <path class="cls-8" d="m499.16,813.46c-113.6,34.25-319.55,73.25-356.53,128-6.39,9.46-11.99,19.64-16.57,30.11"/>
    <path class="cls-8" d="m465.03,823.21c-7.05,71.18,29.7,139.54,29.7,139.54"/>
    <path class="cls-18" d="m121.24,1067.85c16.46,29.72,57.71,44.06,135.87,20.45,21.14-6.37,41.51-13,61-19.71-45.75,12.09-154.24,35.53-196.88-.74Z"/>
    <path class="cls-11" d="m373.4,234.2l-1.95,17.11c39.69,61.87,93.85,81.32,124.74,81.06h.09c51-12.74,68.41-58.62,71.36-107.8.74-11.61.65-23.48-.04-35.09-2.38-42.11-12.04-81.41-16.81-98.78,0,0-153.12-71.27-163.73,71.75,0,0-32.8-6.02-38.91,30.5-5.07,30.16,25.26,41.25,25.26,41.25Z"/>
    <circle class="cls-16" cx="543.07" cy="183.4" r="6.11"/>
    <circle class="cls-16" cx="500.46" cy="175.59" r="6.11"/>
    <path class="cls-21" d="m509.79,142.71c-.65,8.34-29.17,11.59-30.81,6.85-2.47-7.16,32.33-26.43,30.81-6.85Z"/>
    <path class="cls-21" d="m564.15,155.18c.24,4.52-31.03,6.63-29.93-9.43.8-11.57,29.25-3.13,29.93,9.43Z"/>
    <path class="cls-2" d="m395.07,207.62c-12.77-18.91-32.97-16.81-35.07-13.25"/>
    <path class="cls-2" d="m389.66,201.18c-18.84-11.09-29.14,13.75-5.3,13.75"/>
    <path class="cls-2" d="m526.58,165.63c-5.14,10.03-4.76,16.07-1.29,22.5,3.47,6.43,13.75,21.08,8.36,34.07"/>
    <path class="cls-4" d="m493.19,224.43c4.51,15.51,23.16,25.24,31.78,23.24,0,0-8.88,24.09-24.51,17.94-17.97-7.08-7.27-41.18-7.27-41.18Z"/>
    <path class="cls-2" d="m397.91,229.72c-12.26,8.34-24.52,4.49-24.52,4.49"/>
    <path class="cls-21" d="m342.25,147.68c-17.59,24.13,8.84,34.57,8.84,34.57,3.12-4.42,6.67-7.58,10.36-9.62,11.52-6.41,24.44-1.6,29.59,10.74,36,.78,20.49-27.34,20.49-27.34,32.28,12.87,33.32-20.19,19.41-35.14,25.22,28.34,57.23,0,51.99-25.48,8.93,27.82,40.73,28.9,36.48,5.81,3.29,5.5,6.59,9.83,9.88,13.08,21.84,21.97,41.42-1.52,33.19-18.89,32.8,31.24,46.97-3.73,15.73-22.49,24.7-20.28-4.46-49.18-24.48-34.18,4.55-35.96-32.45-37.56-48.74-16.55-6.41-39.51-55.8-17.94-57.75.78-36.39-25.43-64.56-6.67-60.92,34.66-14.69-19.67-46.19-8.15-34.1,42.24-30.2-2.08-35.44,35.44-9.96,47.79Z"/>
    <path class="cls-17" d="m361.44,172.63c11.52-6.41,24.44-1.6,29.59,10.74,36,.78,20.49-27.34,20.49-27.34,32.28,12.87,33.32-20.19,19.41-35.14,25.22,28.34,57.23,0,51.99-25.48,8.93,27.82,40.73,28.9,36.48,5.81,3.29,5.5,6.59,9.83,9.88,13.08,8.8-26.73-10.96-62-41.12-46.01-3.99-21.49-53.34-35.44-53.03,18.98-18.28-25.52-59.62-16.77-40.08,31.84-15.38-11.7-50.78,8.23-33.62,53.51Z"/>
    <path class="cls-19" d="m427.75,182.07c-4.36,8.72,3.84,21.66,18.32,28.91,14.48,7.25,29.76,6.06,34.13-2.66,4.36-8.72-3.84-21.66-18.32-28.91-14.48-7.25-29.76-6.06-34.13,2.66Z"/>
    <path class="cls-19" d="m548.53,215.27c2.25,6.15,9.79,9.49,19.11,9.32.74-11.61.65-23.48-.04-35.09-13.78,5.94-22.27,17.11-19.06,25.78Z"/>
  </g>
</svg>