<?xml version="1.0" encoding="UTF-8"?>
<svg id="Layer_2" data-name="Layer 2" xmlns="http://www.w3.org/2000/svg" xmlns:xlink="http://www.w3.org/1999/xlink" viewBox="0 0 1271.74 921.61">
  <defs>
    <style>
      .cls-1 {
        fill: #704725;
      }

      .cls-2, .cls-3, .cls-4 {
        fill: #ddd;
      }

      .cls-5 {
        fill: #b25e47;
      }

      .cls-6 {
        clip-path: url(#clippath-2);
      }

      .cls-6, .cls-7, .cls-8, .cls-9, .cls-10, .cls-11, .cls-12, .cls-13, .cls-14, .cls-15, .cls-16, .cls-17, .cls-18, .cls-19, .cls-20, .cls-21, .cls-22, .cls-23, .cls-24, .cls-25 {
        fill: none;
      }

      .cls-26, .cls-27, .cls-28 {
        fill: #fff;
      }

      .cls-7 {
        stroke: #f9f9f9;
      }

      .cls-7, .cls-3, .cls-8, .cls-11, .cls-29, .cls-20, .cls-30, .cls-4, .cls-24 {
        stroke-width: 2.18px;
      }

      .cls-7, .cls-3, .cls-9, .cls-11, .cls-12, .cls-13, .cls-14, .cls-15, .cls-16, .cls-17, .cls-31, .cls-27, .cls-29, .cls-28, .cls-18, .cls-19, .cls-20, .cls-21, .cls-30, .cls-24, .cls-25 {
        stroke-linecap: round;
        stroke-linejoin: round;
      }

      .cls-3, .cls-8, .cls-10, .cls-16, .cls-31, .cls-29, .cls-30, .cls-4, .cls-24 {
        stroke: #999;
      }

      .cls-8, .cls-10, .cls-4 {
        stroke-miterlimit: 10;
      }

      .cls-32 {
        fill: #4bbf68;
      }

      .cls-9, .cls-11 {
        stroke: #fff;
      }

      .cls-9, .cls-12, .cls-15, .cls-17, .cls-27, .cls-28, .cls-18, .cls-19, .cls-21, .cls-25 {
        stroke-width: 1.64px;
      }

      .cls-10, .cls-16, .cls-31 {
        stroke-width: 4.36px;
      }

      .cls-12 {
        stroke: #a56f42;
      }

      .cls-13 {
        stroke: #53dd07;
      }

      .cls-13, .cls-14 {
        stroke-width: 3.05px;
      }

      .cls-33 {
        fill: #83addf;
      }

      .cls-34 {
        fill: #f4a789;
      }

      .cls-14 {
        stroke: #53c207;
      }

      .cls-15 {
        stroke: #4bbac2;
      }

      .cls-17, .cls-28 {
        stroke: #ef8a66;
      }

      .cls-31, .cls-29 {
        fill: #ededed;
      }

      .cls-35 {
        fill: #7f542d;
      }

      .cls-36 {
        fill: #bf8228;
      }

      .cls-27, .cls-18 {
        stroke: #934735;
      }

      .cls-37 {
        fill: #a7caf0;
      }

      .cls-38 {
        fill: #b57724;
      }

      .cls-39 {
        fill: #22b573;
      }

      .cls-40 {
        fill: #683f1d;
      }

      .cls-41 {
        fill: #473526;
      }

      .cls-19, .cls-20 {
        stroke: #683f1d;
      }

      .cls-42 {
        fill: #41b298;
      }

      .cls-43 {
        fill: #8fbf68;
      }

      .cls-21 {
        stroke: #83addf;
      }

      .cls-44 {
        fill: #febd9d;
      }

      .cls-22 {
        clip-path: url(#clippath);
      }

      .cls-45 {
        fill: #a0503d;
      }

      .cls-30 {
        fill: #f4f4f4;
      }

      .cls-23 {
        clip-path: url(#clippath-1);
      }

      .cls-25 {
        stroke: #9b621f;
      }

      .cls-46 {
        fill: #41b27f;
      }

      .cls-47 {
        fill: #604730;
      }

      .cls-48 {
        fill: #7fce91;
      }

      .cls-49 {
        fill: #f4af90;
      }
    </style>
    <clipPath id="clippath">
      <path class="cls-37" d="m1171.29,901.08c-47.75,34.12-108.6,11-108.6,11v-17.82c-48.74.75-100.22-14.78-100.22-14.78-3.24-37.01,2.88-82.42,6.66-105.5,1.53-9.32,2.68-15,2.68-15,29.04-9.45,196.82-6.1,196.82-6.1.62,5.5,1.11,11.96,1.53,19.06,2.84,49.21,1.13,129.13,1.13,129.13Z"/>
    </clipPath>
    <clipPath id="clippath-1">
      <path class="cls-37" d="m597.58,798.45c-13.33,25.18-25.77,82.35-30.81,108.12,0,0,43.54,17.18,112.86,14.81,69.32-2.37,83.24-14.51,83.24-14.51,0,0,8.29-82.05-13.63-116.71l-151.66,8.29Z"/>
    </clipPath>
    <clipPath id="clippath-2">
      <path class="cls-37" d="m123.26,456.03c-12.51,30.49-33.81,114.15-49.52,224.92,0,0,70.57-4.25,105.17,21.54.98-1.63,18.28-102.51,20.24-106.1,1.96-3.59,14.04-4.24,16.98-2.29,2.94,1.96,69.01,42.4,76.39,44.73,40.48,12.73,86.02-55.65,64.97-80.97-8.99-10.81-33.95-34.61-71.17-98.27l-163.07-3.57Z"/>
    </clipPath>
  </defs>
  <g id="Layer_1-2" data-name="Layer 1">
    <path class="cls-4" d="m805.02,118.88l.47,14.37c.03,1.01.56,1.94,1.41,2.49l12.1,7.76c2.15,1.38,1.78,4.61-.61,5.48l-13.52,4.89c-.95.34-1.67,1.13-1.93,2.11l-3.64,13.91c-.65,2.47-3.84,3.12-5.4,1.11l-8.83-11.35c-.62-.8-1.6-1.24-2.61-1.18l-14.35.84c-2.54.15-4.15-2.69-2.72-4.8l8.07-11.9c.57-.84.69-1.9.32-2.84l-5.23-13.39c-.93-2.37,1.27-4.78,3.72-4.07l13.81,3.99c.97.28,2.02.07,2.8-.58l11.12-9.11c1.97-1.62,4.94-.27,5.02,2.28Z"/>
    <path class="cls-4" d="m1119.93,256.94l10.56,9.76c.74.69,1.78.96,2.76.74l14.02-3.17c2.49-.56,4.54,1.97,3.47,4.29l-6.02,13.06c-.42.92-.37,1.99.15,2.86l7.34,12.36c1.3,2.19-.47,4.92-3,4.62l-14.28-1.69c-1.01-.12-2,.26-2.67,1.02l-9.49,10.8c-1.68,1.92-4.83,1.07-5.33-1.43l-2.81-14.1c-.2-.99-.87-1.82-1.8-2.22l-13.21-5.68c-2.34-1.01-2.51-4.26-.29-5.51l12.54-7.03c.88-.49,1.47-1.39,1.56-2.4l1.32-14.32c.23-2.54,3.28-3.7,5.15-1.97Z"/>
    <g>
      <path class="cls-8" d="m81.7,162.8H27.89c-14.8,0-26.8-12-26.8-26.8,0-7.39,3-14.09,7.85-18.95,4.86-4.86,11.56-7.85,18.95-7.85h53.81"/>
      <path class="cls-8" d="m81.07,633.44h-11.74c-19.3,0-34.97-15.64-34.97-34.94,0-9.65,3.9-18.39,10.25-24.74,6.32-6.32,15.06-10.23,24.72-10.23h12.36"/>
      <rect class="cls-8" x="791.93" y="789.42" width="143.14" height="69.92" rx="34.35" ry="34.35"/>
      <rect class="cls-8" x="1112.95" y="833.9" width="132.75" height="24.31" rx="11.95" ry="11.95"/>
      <path class="cls-8" d="m1228.75,102.01h15.08c14.82,0,26.82,12,26.82,26.82,0,7.41-3,14.11-7.85,18.95-4.86,4.86-11.56,7.85-18.97,7.85h-15.08"/>
    </g>
    <path class="cls-16" d="m1159.94,758.73H150.5c-37.94,0-68.81-30.87-68.81-68.81V70.99c0-37.94,30.87-68.81,68.81-68.81h1009.44c37.94,0,68.81,30.87,68.81,68.81v618.94c0,37.94-30.87,68.81-68.81,68.81Z"/>
    <path class="cls-10" d="m150.5,50.99h1009.44c11.04,0,20,8.96,20,20v618.94c0,11.04-8.96,20-20,20H150.5c-11.04,0-20-8.96-20-20V70.99c0-11.04,8.96-20,20-20Z"/>
    <g>
      <g>
        <polyline class="cls-24" points="1122.4 495.77 1122.4 568.63 937.99 568.63 937.99 308.87"/>
        <line class="cls-24" x1="1122.4" y1="311.97" x2="1122.4" y2="352.67"/>
        <line class="cls-24" x1="970.46" y1="275.51" x2="1111.9" y2="275.51"/>
        <line class="cls-24" x1="1039.01" y1="310.27" x2="1077.15" y2="310.27"/>
        <line class="cls-24" x1="1039.01" y1="328.12" x2="1069.87" y2="328.12"/>
      </g>
      <line class="cls-24" x1="969.64" y1="416.69" x2="997.78" y2="416.69"/>
      <line class="cls-24" x1="969.64" y1="441.24" x2="984.8" y2="441.24"/>
    </g>
    <g>
      <rect class="cls-24" x="1062.1" y="352.67" width="93.68" height="143.1"/>
      <line class="cls-24" x1="1096.45" y1="377.25" x2="1122.4" y2="377.25"/>
      <line class="cls-24" x1="1107.52" y1="396.44" x2="1122.4" y2="396.44"/>
    </g>
    <g>
      <path class="cls-24" d="m598.44,465.27c5.52,12.93-27.72,37.11-46.53,25.86-10.75,15.93-43.1,5-35.38-4.4-20.17,1.77-42.89-8.68-33.7-26.05-25-9.7-13.02-31.9,11.74-32.41-21.43-30.62-4.35-53.58,30.75-51.3-.38-37.01,45.3-35.48,48.9,2.82,26.78-9.45,48.99,18.1,31.13,39.8,24.49,11.74,14.29,37.78-6.9,45.68Z"/>
      <path class="cls-24" d="m519.21,397h61.72s9.37,34.39-4.38,69.96l-64.7-1.02s17.46-37.9,7.35-68.94Z"/>
      <g>
        <line class="cls-24" x1="533.12" y1="414.44" x2="564.54" y2="414.44"/>
        <line class="cls-24" x1="535.13" y1="428.07" x2="558.86" y2="428.07"/>
        <line class="cls-24" x1="533.59" y1="441.07" x2="566.51" y2="441.07"/>
      </g>
    </g>
    <path class="cls-4" d="m952.54,295.52c-6.94,15.66-32.21,21.37-46.64,11.4-6.7,16.62-37.25,20.26-52.8,12.31,4.61-21.03-7.88-33.75-23.72-34.03-4.64-13.56-1.09-28.49,10.67-33.46-10.14-21.19,7.12-32.75,25.09-22.96-.53-21.01,25.63-43.6,53.4-20.48,20.81-15.82,49.48,7.12,36.65,38.63,24.38,6.06,18.15,51.81-2.66,48.59Z"/>
    <path class="cls-16" d="m311.26,107h97.72c-4.41,30.05,2.2,79.3,21.68,118h-107.62s-31.76-25.74-11.78-118Z"/>
    <g>
      <path class="cls-24" d="m672.68,183.17l81.47.17s11.82,40.09-14.18,83.4l-88.14-3.58s26.89-38.87,20.85-79.99Z"/>
      <line class="cls-24" x1="687.55" y1="202.68" x2="740.75" y2="202.68"/>
      <line class="cls-24" x1="688.32" y1="220.51" x2="730.77" y2="220.51"/>
      <line class="cls-24" x1="687.55" y1="243.86" x2="707.62" y2="243.86"/>
      <line class="cls-24" x1="712.16" y1="243.86" x2="725.5" y2="243.86"/>
    </g>
    <g>
      <path class="cls-24" d="m455.52,79.22l161.63,2.15s11.97,66.62-12.77,153.24h-165.62s27.54-75,16.76-155.39Z"/>
      <line class="cls-24" x1="545.16" y1="140.32" x2="591.96" y2="141.75"/>
      <line class="cls-24" x1="565.22" y1="127.95" x2="593.88" y2="128.82"/>
      <line class="cls-24" x1="586.96" y1="116.34" x2="596.03" y2="116.61"/>
      <line class="cls-24" x1="579.97" y1="101.59" x2="596.03" y2="102.08"/>
    </g>
    <rect class="cls-4" x="541.59" y="167.83" width="45.36" height="42.15"/>
    <line class="cls-24" x1="786.82" y1="313.2" x2="826.91" y2="313.2"/>
    <line class="cls-24" x1="778.2" y1="330.86" x2="818.29" y2="330.86"/>
    <line class="cls-24" x1="772.17" y1="349.85" x2="812.26" y2="349.85"/>
    <path class="cls-24" d="m845.89,358.08c7.32,23.25-28,38.76-44.37,15.09-16.8,28.84-82.73,10.74-53.43-23.05-20.79-1.93-17.31-42.2,6.48-38.8-12.49-36.36,37.92-49.7,51.69-17.84,7.5-5.79,15.69-8.41,23.12-8.28,15.84.29,28.33,13,23.72,34.03-.31,1.42-.69,2.88-1.18,4.39,20.68,8.19,9.03,33.17-6.03,34.46Z"/>
    <g>
      <line class="cls-7" x1="878.74" y1="237.74" x2="921.78" y2="237.74"/>
      <line class="cls-7" x1="877.67" y1="255.6" x2="913.05" y2="255.6"/>
      <line class="cls-7" x1="876.46" y1="279.56" x2="902.49" y2="279.56"/>
    </g>
    <rect class="cls-29" x="965.58" y="316.36" width="52.8" height="72.62"/>
    <polygon class="cls-4" points="735.69 177.46 766.27 209.98 776.54 196.92 747.24 167.83 735.69 177.46"/>
    <polygon class="cls-4" points="656.89 193.95 687.55 161.24 699.39 172.18 669.25 207.81 656.89 193.95"/>
    <path class="cls-4" d="m1045.04,362.45l11.89,10.24s29.04-30.9,28.48-30.9-13.22-9.47-13.22-9.47l-27.15,30.14Z"/>
    <polygon class="cls-4" points="1129.91 344.95 1142.94 333.78 1174.03 366.73 1159.69 379.02 1129.91 344.95"/>
    <path class="cls-29" d="m1134.63,183.85c-15.48,41.34-61.55,62.32-102.9,46.84-31.04-11.62-50.6-40.5-51.87-71.66,6.37,13.45,17.79,24.55,32.8,30.17,30.7,11.49,64.93-4.09,76.43-34.79,11.5-30.72-4.09-64.93-34.79-76.43-1.52-.57-3.02-1.06-4.55-1.48,12.45-1.59,25.47-.25,38.04,4.46,41.34,15.48,62.32,61.54,46.84,102.9Z"/>
    <path class="cls-4" d="m304.8,80.34l10.88,9.4c.77.66,1.81.9,2.79.65l13.91-3.64c2.47-.64,4.6,1.82,3.61,4.17l-5.58,13.25c-.39.93-.3,2,.25,2.85l7.76,12.11c1.38,2.15-.31,4.94-2.85,4.72l-14.33-1.21c-1.01-.08-1.99.33-2.64,1.11l-9.12,11.12c-1.62,1.97-4.79,1.23-5.37-1.25l-3.28-14c-.23-.99-.93-1.79-1.87-2.16l-13.39-5.23c-2.37-.93-2.65-4.18-.47-5.49l12.3-7.44c.87-.52,1.42-1.44,1.48-2.45l.84-14.35c.15-2.54,3.15-3.81,5.08-2.15Z"/>
    <path class="cls-31" d="m168.58,889.64l13.85-55.25h133.79l-13.85,55.25m27.56,0l146-582.44c2.12-8.44-4.27-16.62-12.97-16.62-6.13,0-11.48,4.17-12.97,10.12l-14.24,56.82h-133.79l12.61-50.32c2.12-8.44-4.27-16.62-12.97-16.62-6.13,0-11.48,4.17-12.97,10.12l-147.63,588.94M430.75,377.52l-22.42,89.44h-133.79l22.42-89.44h133.79Zm-27.43,109.45l-41.26,164.59h-133.79l41.26-164.59h133.79Zm-82.07,327.41h-133.79l35.8-142.81h133.79l-35.8,142.81Z"/>
    <path class="cls-42" d="m1241.14,699.22c1.82,11.58-11.17,23.25-20.71,28.02,0,0-11.14-24.92-10.34-24.92s19.68-10.71,31.05-3.1Z"/>
    <g>
      <path class="cls-37" d="m1171.29,901.08c-47.75,34.12-108.6,11-108.6,11v-17.82c-48.74.75-100.22-14.78-100.22-14.78-3.24-37.01,2.88-82.42,6.66-105.5,1.53-9.32,2.68-15,2.68-15,29.04-9.45,196.82-6.1,196.82-6.1.62,5.5,1.11,11.96,1.53,19.06,2.84,49.21,1.13,129.13,1.13,129.13Z"/>
      <g class="cls-22">
        <g>
          <g>
            <rect class="cls-9" x="1271.4" y="733.98" width="11.22" height="11.22"/>
            <rect class="cls-9" x="1216.71" y="733.98" width="11.22" height="11.22"/>
            <rect class="cls-9" x="1162.02" y="733.98" width="11.22" height="11.22"/>
            <rect class="cls-9" x="1107.34" y="733.98" width="11.22" height="11.22"/>
            <rect class="cls-9" x="1052.65" y="733.98" width="11.22" height="11.22"/>
            <rect class="cls-9" x="997.96" y="733.98" width="11.22" height="11.22"/>
            <rect class="cls-9" x="943.28" y="733.98" width="11.22" height="11.22"/>
          </g>
          <g>
            <rect class="cls-9" x="1271.4" y="803.36" width="11.22" height="11.22"/>
            <rect class="cls-9" x="1216.71" y="803.36" width="11.22" height="11.22"/>
            <rect class="cls-9" x="1162.02" y="803.36" width="11.22" height="11.22"/>
            <rect class="cls-9" x="1107.34" y="803.36" width="11.22" height="11.22"/>
            <rect class="cls-9" x="1052.65" y="803.36" width="11.22" height="11.22"/>
            <rect class="cls-9" x="997.96" y="803.36" width="11.22" height="11.22"/>
            <rect class="cls-9" x="943.28" y="803.36" width="11.22" height="11.22"/>
          </g>
          <g>
            <rect class="cls-9" x="1271.4" y="872.75" width="11.22" height="11.22"/>
            <rect class="cls-9" x="1216.71" y="872.75" width="11.22" height="11.22"/>
            <rect class="cls-9" x="1162.02" y="872.75" width="11.22" height="11.22"/>
            <rect class="cls-9" x="1107.34" y="872.75" width="11.22" height="11.22"/>
            <rect class="cls-9" x="1052.65" y="872.75" width="11.22" height="11.22"/>
            <rect class="cls-9" x="997.96" y="872.75" width="11.22" height="11.22"/>
            <rect class="cls-9" x="943.28" y="872.75" width="11.22" height="11.22"/>
          </g>
          <g>
            <rect class="cls-9" x="905.63" y="693.67" width="22.44" height="22.44"/>
            <rect class="cls-9" x="961.66" y="693.67" width="22.44" height="22.44"/>
            <rect class="cls-9" x="1017.68" y="693.67" width="22.44" height="22.44"/>
            <rect class="cls-9" x="1073.71" y="693.67" width="22.44" height="22.44"/>
            <rect class="cls-9" x="1129.74" y="693.67" width="22.44" height="22.44"/>
            <rect class="cls-9" x="1185.76" y="693.67" width="22.44" height="22.44"/>
            <rect class="cls-9" x="1241.79" y="693.67" width="22.44" height="22.44"/>
          </g>
          <rect class="cls-9" x="905.63" y="763.06" width="22.44" height="22.44"/>
          <rect class="cls-9" x="961.66" y="763.06" width="22.44" height="22.44"/>
          <rect class="cls-9" x="1017.68" y="763.06" width="22.44" height="22.44"/>
          <rect class="cls-9" x="1073.71" y="763.06" width="22.44" height="22.44"/>
          <rect class="cls-9" x="1129.74" y="763.06" width="22.44" height="22.44"/>
          <rect class="cls-9" x="1185.76" y="763.06" width="22.44" height="22.44"/>
          <rect class="cls-9" x="1241.79" y="763.06" width="22.44" height="22.44"/>
          <g>
            <rect class="cls-9" x="905.63" y="832.45" width="22.44" height="22.44"/>
            <rect class="cls-9" x="961.66" y="832.45" width="22.44" height="22.44"/>
            <rect class="cls-9" x="1017.68" y="832.45" width="22.44" height="22.44"/>
            <rect class="cls-9" x="1073.71" y="832.45" width="22.44" height="22.44"/>
            <rect class="cls-9" x="1129.74" y="832.45" width="22.44" height="22.44"/>
            <rect class="cls-9" x="1185.76" y="832.45" width="22.44" height="22.44"/>
            <rect class="cls-9" x="1241.79" y="832.45" width="22.44" height="22.44"/>
          </g>
          <g>
            <rect class="cls-9" x="905.63" y="901.83" width="22.44" height="22.44"/>
            <rect class="cls-9" x="961.66" y="901.83" width="22.44" height="22.44"/>
            <rect class="cls-9" x="1017.68" y="901.83" width="22.44" height="22.44"/>
            <rect class="cls-9" x="1073.71" y="901.83" width="22.44" height="22.44"/>
            <rect class="cls-9" x="1129.74" y="901.83" width="22.44" height="22.44"/>
            <rect class="cls-9" x="1185.76" y="901.83" width="22.44" height="22.44"/>
            <rect class="cls-9" x="1241.79" y="901.83" width="22.44" height="22.44"/>
          </g>
        </g>
      </g>
    </g>
    <path class="cls-40" d="m1170.16,771.95c-22.83,5.15-53.34,8.99-84.95,10.49-14.69.71-29.62.91-44.13.51-26.8-.73-52.14-3.51-71.95-8.96,1.53-9.32,2.68-15,2.68-15,10.27-3.33,37.87-5.08,69.27-5.95,14.35-.38,29.49-.58,44.13-.67,43.97-.29,83.42.51,83.42.51.62,5.5,1.11,11.96,1.53,19.06Z"/>
    <path class="cls-26" d="m1085.21,752.38v30.06c-14.69.71-29.62.91-44.13.51v-29.91c14.35-.38,29.49-.58,44.13-.67Z"/>
    <line class="cls-15" x1="1062.69" y1="894.26" x2="1063.15" y2="846.05"/>
    <path class="cls-32" d="m1241.14,699.22s-6.46,1.22-16.24,4.1c-12.07,3.55-29.2,9.63-45.57,19.08-2.64,1.51-14.24,13.84-25.83,24.36-8.56,7.81-17.15,14.64-22.05,15.35-17.31,2.55-44.95,5.64-75.1,5.21-4.64-.07-9.12-.2-13.47-.38-42.8-1.69-71.06-7.96-71.06-7.96,1.35,0-.71-19.08-2.64-37.67-.49-4.75-.98-9.47-1.4-13.84-.69.47-41.93-28.44-45.48-30.93-.16-.11-.24-.18-.24-.18,0,0,.2-1.07.64-3,2.42-10.89,11.98-49.48,31.06-79.12,4.26-6.63,9.01-12.8,14.24-18.13,27.91-28.31,60.81-37.5,94.12-40.07,33.28-2.57,37.23-3.37,37.23-3.37,29.86,10.34,63.21,16.53,87.26,45.33,4.44,5.32,9.1,12.78,13.71,21.45,20.54,38.29,40.82,99.75,40.82,99.75Z"/>
    <path class="cls-42" d="m985.13,619.51c-4.9,20.37-14.1,54.68-13.73,90.59-.09-.89-45.55-31.06-49.1-33.55l.4-3.17c14.2-6.7,23.23-2.11,31.06,1.11,17.64,7.21,8.96-51.05,31.06-54.93.11-.02.2-.02.31-.04Z"/>
    <path class="cls-42" d="m1153.5,746.77c-8.56,7.81-17.15,14.64-22.05,15.35-17.31,2.55-44.95,5.64-75.1,5.21-4.64-.07-9.12-.2-13.47-.38,8.36-12.67,26.27-33.48,51.61-28.62,35.9,6.9,42.55-52.09,35.9-77.19-6.63-25.09,10.18-35.3,10.18-35.3v.02c.42,13.87,2.26,29.29,5.75,45.75v.02c.09.44.2.89.29,1.35,3.99,19.01,6.01,52.69,6.9,73.77Z"/>
    <path class="cls-39" d="m1200.31,599.47c-30.15-7.34-59.77-4.93-72.73,7.72-26.42,25.87-77.76,60.81-107.38,23.3-19.19-24.32-40.22-39.58-66.45-36.23,4.26-6.63,9.01-12.8,14.24-18.13,27.91-28.31,60.81-37.5,94.12-40.07,33.28-2.57,37.23-3.37,37.23-3.37,29.86,10.34,63.21,16.53,87.26,45.33,4.44,5.32,9.1,12.78,13.71,21.45Z"/>
    <g>
      <path class="cls-13" d="m1148.04,679.3c-.51-2.11-.98-4.22-1.44-6.3-.09-.47-.2-.91-.29-1.35v-.02c-3.48-16.46-5.32-31.88-5.75-45.75v-.02c-.2-6.59-.07-12.82.35-18.66"/>
      <path class="cls-13" d="m1154.17,564.69c-3.85,4.4-7,10.79-9.31,18.81"/>
      <path class="cls-13" d="m1064.54,577.39c-3.26,15.3-1.85,36.37-1.85,36.37"/>
      <path class="cls-13" d="m971.39,705.56c-.07-41.54,17.43-100.85,17.43-100.85"/>
    </g>
    <path class="cls-26" d="m1042.56,536.06c-11.36,0-14.05,30.63-9.12,45.64,4.08,12.43,21.91-9.37,35.19-22.41l-26.07-23.23Z"/>
    <path class="cls-26" d="m1061.18,558.07c13.72,13.56,26.88,29.01,32.36,26.8,5.48-2.21,19.34-41.93,15.4-51.23-3.93-9.3-13.22-11.98-13.22-11.98l-34.54,36.42Z"/>
    <path class="cls-26" d="m1064.54,558.77c23.88-4.96,31.19-37.12,31.19-37.12-33.48-.02-53.16,14.41-53.16,14.41,0,0-3.94,28.1,21.98,22.71Z"/>
    <path class="cls-44" d="m971.39,705.57c-6.39-22.87-20.73-29.32-32.29-30.52-9.31-.96-16.81,1.5-16.81,1.5-14.8,56.55-20.74,75.69-1.03,81.59,19.71,5.91,40.01-5.94,50.13-14.82,1.02-19.71,0-37.76,0-37.76Z"/>
    <path class="cls-44" d="m1227.06,762c-14.18,26.87-31.2,27.96-51.96,23.47-22.7-7-8.18-45.59,4.23-63.07,16.37-9.44,33.49-15.52,45.57-19.08,5.58,17.42,13.34,37.5,2.16,58.67Z"/>
    <path class="cls-30" d="m1094.86,609.19c-34.5-19.06-59.84,5.92-59.84,5.92l3.51-14.91-17.53-4.64c-17.31,53.07-3.84,99.48,44.77,97.75l48.99-28.86s11.45-37.94-19.9-55.27Zm-18.26,59.53h-.22c-12,0-21.74-9.74-21.74-21.74,0-7.19,3.46-13.53,8.83-17.51h.22c12,0,21.74,9.74,21.74,21.76,0,7.17-3.46,13.53-8.83,17.48Z"/>
    <path class="cls-3" d="m1076.6,668.72c-3.62,2.68-8.08,4.26-12.91,4.26-12.03,0-21.76-9.74-21.76-21.74s9.63-21.65,21.54-21.76c-5.37,3.97-8.83,10.32-8.83,17.51,0,12,9.74,21.74,21.74,21.74h.22Z"/>
    <path class="cls-24" d="m1035.03,615.11c-12.28,13.08-21.47,33.08-13.12,56.52"/>
    <path class="cls-24" d="m1101.04,653.69c1.56-29.98-25.98-56.68-61.08-42.47"/>
    <path class="cls-44" d="m1183.58,786.97c-4.65.01-13.73-2.81-16.45-3.72-.2-.04-.39-.13-.59-.2-7.17-2.46-14.67-6.17-22.28-11.16-4.64-3.05-8.9-6.32-12.82-9.77-26.55-23.31-36.89-52.93-36.89-52.93-20.58-2.2-29.96-16.87-31.26-19.8-2.22-4.88,2.35-15.92,2.35-15.92-5.8-7.09,2.31-15.13,7.39-12.97-6.87-10.6-12.14-18.2-4.4-22.37,5.73-3.07,41.38,19.53,50.08,30.46,8.74,10.9,60.63,53.81,60.63,53.81,20.14,15.87,42.33,64.48,4.24,64.57Z"/>
    <path class="cls-17" d="m1179.32,722.41c15.35,14.01,17.77,25.91,17.77,25.91"/>
    <path class="cls-17" d="m1063.29,689.39c-2.22-4.88,2.35-15.92,2.35-15.92-5.8-7.09,2.31-15.13,7.39-12.97-6.87-10.6-12.14-18.2-4.4-22.37,2.47-1.33,10.5,2.12,19.54,7.35"/>
    <path class="cls-35" d="m1110.59,442.35s-1.82,22.5-.4,27.6c0,0-17.82,12.31-24.85,9.36-.27-.11-.51-.27-.75-.47-6.55-4.97-10.14-37.12-10.14-37.12,0,0-25.07-3.37-29.86-14.27,0,0-20.28,3.04-15.29-13.25,0,0-2.95,1.33-5.81,1.29-2.29-.02-4.5-.93-5.1-4.04-1.4-7.01,18.17-8.74,18.17-8.74-4.59-10.09,8.85-16.82,22.1-3.99-4.79-7.12,1.46-12.47,14.27-7.83,14.04,5.1,26.89,18.95,23.72,28.31,0,0,12.36-.42,19.06,7.74,7.85,9.58-.4,14.38-5.1,15.4Z"/>
    <path class="cls-1" d="m1084.59,478.84c-6.55-4.97-10.14-37.12-10.14-37.12,0,0-25.07-3.37-29.86-14.27,0,0-20.28,3.04-15.29-13.25,0,0-2.95,1.33-5.81,1.29,5.97-3.33,13.62-5.55,21.54-2.68,17.11,6.15,25.98,8.5,31.02,4.24,5.04-4.24,17.42,1.2,12.67,14-4.75,12.8,8.94,1.51,11.47,17.08,1.8,11.14-9.21,24.21-15.6,30.71Z"/>
    <path class="cls-12" d="m1090.26,430.69c11.95,0,18.68,7.21,18.68,7.21"/>
    <path class="cls-12" d="m1091.17,437.06c6.78,5.03,9.3,14.66,9.22,20.88"/>
    <path class="cls-44" d="m1101.98,497.06s-2.26,20.05,0,27.88c0,0-7.39,37.77-35.17,39.68-14.2.95-21.14-7.9-24.52-16.8-3.24-8.5-3.24-17.02-3.24-17.02,0,0-16.6,1.53-27.05-18.02-3.24-6.06-4.79-14.69-4.57-25.14.11-5.04.64-10.49,1.62-16.28,2.86-16.95,9.47-36.76,20.23-57.15.33,8.08,8.9,11.14,19.55,6.3,0,0-1.44,13.71,17.44,8.39,0,0-.73,8.43,11.32,4.68,14.22-4.42,1.4,20.68,13.56,36.98,0,0,12.2-13.29,22.79-4.99,13.4,10.49-.49,28.73-11.96,31.48Z"/>
    <path class="cls-17" d="m1095.06,478.99c4.41-6.11,14.48-10.43,19.33-1.71"/>
    <path class="cls-17" d="m1093.54,484.25c10.12,5.97,13.25-8.57,3.68-7.69"/>
    <path class="cls-17" d="m1025.87,492.22c9.81,2.82,16.94-3.86,19.17-9.21"/>
    <path class="cls-17" d="m1101.99,497.06c-6.52,1.34-12.53-2.36-12.53-2.36"/>
    <path class="cls-49" d="m1053.01,492.54c1.54,4.22,8.42,5.58,15.37,3.04,6.95-2.54,11.33-8.01,9.79-12.22-1.54-4.22-8.42-5.58-15.37-3.04-6.95,2.54-11.33,8.01-9.79,12.22Z"/>
    <path class="cls-49" d="m1018.85,483.59c-1.24,3.42-5.97,4.95-11.4,4.06.11-5.04.64-10.49,1.62-16.28,6.94,2.53,11.32,8.01,9.78,12.22Z"/>
    <path class="cls-20" d="m1020.21,472.99c-1.76.52-3.63.8-5.56.8-7.93,0-14.76-4.68-17.88-11.43"/>
    <path class="cls-20" d="m1033.95,450.35c.24,1.22.36,2.48.36,3.78s-.12,2.57-.36,3.8"/>
    <circle class="cls-40" cx="1021.05" cy="455.77" r="3.13"/>
    <path class="cls-40" d="m1043.01,463.08c0,1.73,1.4,3.13,3.13,3.13s3.13-1.4,3.13-3.13-1.4-3.13-3.13-3.13-3.13,1.4-3.13,3.13Z"/>
    <path class="cls-17" d="m1043.01,452.64c-3.7,2.57-6.83,4.81-9.43,6.81-7.92,6.03-11.09,9.74-11.69,12.96-.47,2.46.6,4.66,2.24,7.37"/>
    <path class="cls-35" d="m1048.27,436.42c1.57-3.06,10.48,2.59,12.61,6.92,2.13,4.33-15.27-1.75-12.61-6.92Z"/>
    <path class="cls-35" d="m1022.65,431.89c-2.26,2.29,11.77,5.3,13.46,1.75,1.68-3.56-9.76-5.48-13.46-1.75Z"/>
    <path class="cls-49" d="m1045.04,473.6c0,.68-.55,1.24-1.24,1.24s-1.24-.55-1.24-1.24.55-1.24,1.24-1.24,1.24.55,1.24,1.24Z"/>
    <path class="cls-49" d="m1016.03,470.21c0,.68-.55,1.24-1.24,1.24s-1.24-.55-1.24-1.24.55-1.24,1.24-1.24,1.24.55,1.24,1.24Z"/>
    <path class="cls-49" d="m1020.4,464.97c0,.68-.55,1.24-1.24,1.24s-1.24-.55-1.24-1.24.55-1.24,1.24-1.24,1.24.55,1.24,1.24Z"/>
    <circle class="cls-49" cx="1050.78" cy="472.36" r="1.24"/>
    <path class="cls-49" d="m1063.54,476.52c0,.68-.55,1.24-1.24,1.24s-1.24-.55-1.24-1.24.55-1.24,1.24-1.24,1.24.55,1.24,1.24Z"/>
    <path class="cls-49" d="m1057.68,477.65c0,.68-.55,1.24-1.24,1.24s-1.24-.55-1.24-1.24.55-1.24,1.24-1.24,1.24.55,1.24,1.24Z"/>
    <path class="cls-49" d="m1050.78,479.78c0,.68-.55,1.24-1.24,1.24s-1.24-.55-1.24-1.24.55-1.24,1.24-1.24,1.24.55,1.24,1.24Z"/>
    <path class="cls-20" d="m994.98,454.13c0-10.85,8.81-19.66,19.68-19.66,5.4,0,10.29,2.18,13.84,5.71"/>
    <circle class="cls-20" cx="1053.98" cy="468.97" r="19.66"/>
    <line class="cls-20" x1="1073.64" y1="468.97" x2="1091.17" y2="470.57"/>
    <path class="cls-34" d="m1064.58,520.98s-.58,21.74-22.28,26.85c-3.24-8.5-3.24-17.02-3.24-17.02,7.12-.33,21.52-5.37,25.51-9.83Z"/>
    <path class="cls-12" d="m1065.23,403.45c11.13,2.4,22.26,10.75,22.26,18.32"/>
    <path class="cls-12" d="m1045.04,407.91c14.33,1.88,32.83,9.08,39.34,18.16"/>
    <path class="cls-44" d="m953.71,727.82c-1.31,24.68-36.36,61.6-72.9-15.45-19.01-40.07-21.17-92.86-27.91-134.99-.93-5.83-5.76-23.35-12.86-35.65-7.11-12.32-25.16-39.11-19.43-41.03,5.76-1.92,22.43,17.35,22.43,17.35,0,0-19.43-39.79-12.03-41.53,7.39-1.74,24.9,33.75,24.9,33.75-7.11-31.18-9.05-46.74-2.64-47.31,5.43-.48,13.71,31.22,18.71,44.76,1.83,4.97,4.6,3.01,4.27-1.11-.35-4.12-7-43.84,4.27-34.25,7.85,6.67,14.21,55.64,14.21,55.64,0,0,4.75-3.44,8.76-14.63,3.29-9.16,12.86-7.48,10.94,9.99-1.92,17.44-15.59,41.34-15.59,41.34-.55,12.03,11.75,47.88,16.94,58.54,5.21,10.68,25.18,56.07,25.18,56.07,0,0,14.08,22.84,12.73,48.52Z"/>
    <path class="cls-17" d="m832.69,529.56c-7.69-12.65-16.29-27.45-12.08-28.86,5.76-1.92,22.43,17.35,22.43,17.35,0,0-19.43-39.79-12.03-41.53,7.39-1.74,24.9,33.75,24.9,33.75-7.11-31.18-9.05-46.74-2.64-47.31,5.43-.48,13.71,31.22,18.71,44.76,1.83,4.97,4.6,3.01,4.27-1.11-.35-4.12-7-43.84,4.27-34.25,7.85,6.67,14.21,55.64,14.21,55.64,0,0,4.75-3.44,8.76-14.63,3.29-9.16,12.86-7.48,10.94,9.99-.99,9.01-5.12,19.73-8.87,28"/>
    <path class="cls-17" d="m849.56,517.75c7.2-5.19,20.17-5.76,20.17-5.76"/>
    <path class="cls-17" d="m894.73,527.99s-14.84-2.1-19.29,12.57"/>
    <path class="cls-17" d="m954.44,716.89s-3.27-15.6-13.47-37.59"/>
    <path class="cls-24" d="m897.09,514.86s14.8,8.7,14.8,8.16,20.21-37.36,20.21-37.36l-19.85-9.16-15.16,38.35Z"/>
    <polygon class="cls-24" points="869.72 487.12 894.73 480.98 885.09 427.92 858.47 433.7 869.72 487.12"/>
    <polygon class="cls-24" points="824.72 430.19 852.38 424.77 863.5 474.53 840.83 478.38 824.72 430.19"/>
    <polygon class="cls-24" points="782.95 480.94 806.05 462.95 831.85 503.61 813.32 518.05 782.95 480.94"/>
    <g>
      <path class="cls-37" d="m597.58,798.45c-13.33,25.18-25.77,82.35-30.81,108.12,0,0,43.54,17.18,112.86,14.81,69.32-2.37,83.24-14.51,83.24-14.51,0,0,8.29-82.05-13.63-116.71l-151.66,8.29Z"/>
      <g class="cls-23">
        <rect class="cls-9" x="862.78" y="670.22" width="11.22" height="11.22"/>
        <rect class="cls-9" x="808.09" y="670.22" width="11.22" height="11.22"/>
        <rect class="cls-9" x="753.41" y="670.22" width="11.22" height="11.22"/>
        <rect class="cls-9" x="698.72" y="670.22" width="11.22" height="11.22"/>
        <rect class="cls-9" x="644.03" y="670.22" width="11.22" height="11.22"/>
        <rect class="cls-9" x="589.35" y="670.22" width="11.22" height="11.22"/>
        <rect class="cls-9" x="534.66" y="670.22" width="11.22" height="11.22"/>
        <rect class="cls-9" x="862.78" y="739.61" width="11.22" height="11.22"/>
        <rect class="cls-9" x="808.09" y="739.61" width="11.22" height="11.22"/>
        <rect class="cls-9" x="753.41" y="739.61" width="11.22" height="11.22"/>
        <rect class="cls-9" x="698.72" y="739.61" width="11.22" height="11.22"/>
        <rect class="cls-9" x="644.03" y="739.61" width="11.22" height="11.22"/>
        <rect class="cls-9" x="589.35" y="739.61" width="11.22" height="11.22"/>
        <rect class="cls-9" x="534.66" y="739.61" width="11.22" height="11.22"/>
        <rect class="cls-9" x="862.78" y="808.99" width="11.22" height="11.22"/>
        <rect class="cls-9" x="808.09" y="808.99" width="11.22" height="11.22"/>
        <rect class="cls-9" x="753.41" y="808.99" width="11.22" height="11.22"/>
        <rect class="cls-9" x="698.72" y="808.99" width="11.22" height="11.22"/>
        <rect class="cls-9" x="644.03" y="808.99" width="11.22" height="11.22"/>
        <rect class="cls-9" x="589.35" y="808.99" width="11.22" height="11.22"/>
        <rect class="cls-9" x="534.66" y="808.99" width="11.22" height="11.22"/>
        <rect class="cls-9" x="862.78" y="878.38" width="11.22" height="11.22"/>
        <rect class="cls-9" x="808.09" y="878.38" width="11.22" height="11.22"/>
        <rect class="cls-9" x="753.41" y="878.38" width="11.22" height="11.22"/>
        <rect class="cls-9" x="698.72" y="878.38" width="11.22" height="11.22"/>
        <rect class="cls-9" x="644.03" y="878.38" width="11.22" height="11.22"/>
        <rect class="cls-9" x="589.35" y="878.38" width="11.22" height="11.22"/>
        <rect class="cls-9" x="534.66" y="878.38" width="11.22" height="11.22"/>
        <rect class="cls-9" x="497.02" y="629.92" width="22.44" height="22.44"/>
        <rect class="cls-9" x="553.04" y="629.92" width="22.44" height="22.44"/>
        <rect class="cls-9" x="609.07" y="629.92" width="22.44" height="22.44"/>
        <rect class="cls-9" x="665.1" y="629.92" width="22.44" height="22.44"/>
        <rect class="cls-9" x="721.12" y="629.92" width="22.44" height="22.44"/>
        <rect class="cls-9" x="777.15" y="629.92" width="22.44" height="22.44"/>
        <rect class="cls-9" x="833.18" y="629.92" width="22.44" height="22.44"/>
        <rect class="cls-9" x="889.2" y="629.92" width="22.44" height="22.44"/>
        <rect class="cls-9" x="497.02" y="699.3" width="22.44" height="22.44"/>
        <rect class="cls-9" x="553.04" y="699.3" width="22.44" height="22.44"/>
        <rect class="cls-9" x="609.07" y="699.3" width="22.44" height="22.44"/>
        <rect class="cls-9" x="665.1" y="699.3" width="22.44" height="22.44"/>
        <rect class="cls-9" x="721.12" y="699.3" width="22.44" height="22.44"/>
        <rect class="cls-9" x="777.15" y="699.3" width="22.44" height="22.44"/>
        <rect class="cls-9" x="833.18" y="699.3" width="22.44" height="22.44"/>
        <rect class="cls-9" x="889.2" y="699.3" width="22.44" height="22.44"/>
        <rect class="cls-9" x="497.02" y="768.69" width="22.44" height="22.44"/>
        <rect class="cls-9" x="553.04" y="768.69" width="22.44" height="22.44"/>
        <rect class="cls-9" x="609.07" y="768.69" width="22.44" height="22.44"/>
        <rect class="cls-9" x="665.1" y="768.69" width="22.44" height="22.44"/>
        <rect class="cls-9" x="721.12" y="768.69" width="22.44" height="22.44"/>
        <rect class="cls-9" x="777.15" y="768.69" width="22.44" height="22.44"/>
        <rect class="cls-9" x="833.18" y="768.69" width="22.44" height="22.44"/>
        <rect class="cls-9" x="889.2" y="768.69" width="22.44" height="22.44"/>
        <rect class="cls-9" x="497.02" y="838.08" width="22.44" height="22.44"/>
        <rect class="cls-9" x="553.04" y="838.08" width="22.44" height="22.44"/>
        <rect class="cls-9" x="609.07" y="838.08" width="22.44" height="22.44"/>
        <rect class="cls-9" x="665.1" y="838.08" width="22.44" height="22.44"/>
        <rect class="cls-9" x="721.12" y="838.08" width="22.44" height="22.44"/>
        <rect class="cls-9" x="777.15" y="838.08" width="22.44" height="22.44"/>
        <rect class="cls-9" x="833.18" y="838.08" width="22.44" height="22.44"/>
        <rect class="cls-9" x="889.2" y="838.08" width="22.44" height="22.44"/>
        <rect class="cls-9" x="497.02" y="907.46" width="22.44" height="22.44"/>
        <rect class="cls-9" x="553.04" y="907.46" width="22.44" height="22.44"/>
        <rect class="cls-9" x="609.07" y="907.46" width="22.44" height="22.44"/>
        <rect class="cls-9" x="665.1" y="907.46" width="22.44" height="22.44"/>
        <rect class="cls-9" x="721.12" y="907.46" width="22.44" height="22.44"/>
        <rect class="cls-9" x="777.15" y="907.46" width="22.44" height="22.44"/>
        <rect class="cls-9" x="833.18" y="907.46" width="22.44" height="22.44"/>
        <rect class="cls-9" x="889.2" y="907.46" width="22.44" height="22.44"/>
      </g>
    </g>
    <path class="cls-44" d="m615.79,780.17s-27.45,22.8-28.89,25.44c-17.99,28.71-71.26,51.67-96.54,21.3-32.23-38.73,36.89-70.66,36.89-70.66,0,0,6.48-13.23,6.76-14.13l71.77,14.13,10.01,23.92Z"/>
    <path class="cls-48" d="m778.42,661.97c-1.91,14.18-13.96,100.57-19.97,120.3-6.01,19.72-19.48,25.74-27.18,25.74-4.64,0-23.05.62-44.91,1.42-14.35.51-30.2,1.13-44.59,1.71-36.34,1.44-54.87-5.52-54.87-5.52l.82-1.53,15.8-29.04s-15.55,3.79-34.28.58c-2.88-.49-5.84-1.15-8.81-2.02-12.93-3.75-22.67-14.67-28.55-23.21-4.3-6.21-6.57-11.18-6.57-11.18,11.78-28,23.47-50.92,33.1-67.78,9.87-17.24,17.64-28.2,21.28-31.84,7.21-7.21,29.11-13.71,48.17-17.62l34.59-9.34s22.87-57.02,22.87-57.73,71.44-19.48,71.44-19.48c16.35,34.01,21.9,64.27,23.25,87.06,1.11,19.12-.71,33.01-1.6,39.49Z"/>
    <path class="cls-46" d="m686.36,809.42c-14.35.51-30.2,1.13-44.59,1.71-36.34,1.44-54.87-5.52-54.87-5.52l.82-1.53,15.8-29.04s15.29-29.49,28.89-67.31c.18-.51.38-1.02.55-1.53,2.4,4.5,4.53,10.85,4.3,18.79-.47,16.99-32.44,61.72-8.12,71.75,23.61,9.7,41.8-6.72,57.22,12.69Z"/>
    <path class="cls-43" d="m780.01,622.48c-11.29,9.63-24.21,23.63-27.11,39.09-5.44,28.73-44.59,56.2-84.86,23.03-33.55-27.64-59.77-35.12-109.62-13.18,9.87-17.24,17.64-28.2,21.28-31.84,7.21-7.21,29.11-13.71,48.17-17.62l34.59-9.34s7-121.39,7-122.1,78.64,17.18,78.64,17.18c16.35,34.01,30.57,91.98,31.93,114.77Z"/>
    <path class="cls-14" d="m716.95,612.63c10.04-1.1,16.01-3.52,16.01-3.52"/>
    <path class="cls-14" d="m603.52,775.03s15.29-29.49,28.89-67.31c.18-.51.38-1.02.55-1.53,1.46-4.1,2.91-8.32,4.3-12.58"/>
    <path class="cls-44" d="m490.41,826.98l-.04-.04v-.02c-23.87-24.96-32.55-67.82-37.85-88.32-6.45-25.01-18.81-95.29-20.3-105.89-1.46-10.57,5.91-43.82,5.91-43.82,7.13-2.64,20.1,2.42,32.64,9.09l-2.99,12.82s-.37,11.4-5.67,23.44c0,0,6.5,4.86,9.27,10.64l24.57-6.45c-5.12,13.45-10.92,29.82-10.77,34.95.28,9.2,8.52,30.24,17.64,43.76,9.11,13.54,24.44,39.13,24.44,39.13,46.46,50.36,13.95,111.82-36.84,70.72Z"/>
    <path class="cls-17" d="m438.11,588.88s-7.35,33.24-5.88,43.83"/>
    <path class="cls-2" d="m444.89,541.65s9.21,59.55,12.36,80.52c-25.71,3-36.36-35.45-16.8-48.92-17.68-11.45-18.17-45.62,4.04-49.9-5.28-17.59,21.88-39.78,41.05-27.22,6.23-22.76,40.58-23.74,52.65-4.77l-86.26,22.83,1.71,24.72c-3.13.95-6.06,1.86-8.74,2.75Z"/>
    <path class="cls-29" d="m459.84,629.07l1.26,18.5,97.33-25.6s5.15-43.09-11.34-126.33c-.4-2.09-.82-4.17-1.26-6.3l-7.65,2.02-6.86,1.82-79.41,21.01,1.71,24.72"/>
    <path class="cls-2" d="m529.86,605.31s-71.6,25.18-71.6,24.03c0-.2-.4-2.86-1.02-7.17-3.15-20.97-12.36-80.52-12.36-80.52,2.68-.89,5.61-1.8,8.74-2.75,25.4-7.7,62.45-17.02,62.45-17.02l13.78,83.42Z"/>
    <line class="cls-11" x1="462.1" y1="557.87" x2="500.39" y2="548.42"/>
    <line class="cls-11" x1="464.78" y1="573.06" x2="508.81" y2="563.1"/>
    <line class="cls-11" x1="473.21" y1="588.17" x2="500.39" y2="581.62"/>
    <path class="cls-44" d="m436.59,633.88c7.11-15.27,23.17-32.12,29.22-27.91,6.06,4.21-3.71,28.28-3.71,28.28,0,0,11.9,8.18,14.25,24.9,0,0-33.7,13.95-39.76-25.28Z"/>
    <path class="cls-17" d="m436.59,633.88c7.11-15.27,23.17-32.12,29.22-27.91,6.06,4.21-3.71,28.28-3.71,28.28,0,0,11.9,8.18,14.25,24.9"/>
    <path class="cls-44" d="m624.24,335.98c-7.3-23.49-11.81-39.68-16.12-50.59-6.01-15.24,1.21-24.14,11.91-1.16,4.74,10.18,10.41,22.67,10.41,22.67,0,0,17.93-3.05,26.25,3.68,8.32,6.73,14.35,22.49,16.83,48.88,0,0,18.24,37.19,24.44,50.83,6.2,13.64,35.78,73.5,50.12,97.41,13.27,37.81-66.98,67.92-78.64-17.18,0,0-13.99-42.86-17.18-58.8-3.19-15.94-16.31-60.4-16.31-60.4,0,0-22.12-22.67-24.78-26.21-2.66-3.54-13.11-30.29-8.68-32.06s11.34,3.54,16.65,20.19l5.09,2.72Z"/>
    <path class="cls-17" d="m611.18,345.12c-2.66-3.54-13.11-30.29-8.68-32.06s11.34,3.54,16.65,20.19l5.09,2.72c-7.3-23.49-11.81-39.68-16.12-50.59-6.01-15.24,1.21-24.14,11.91-1.16,4.74,10.18,10.41,22.67,10.41,22.67,0,0,12.85-2.18,21.85,1.23"/>
    <line class="cls-17" x1="630.44" y1="306.9" x2="634.96" y2="317.3"/>
    <line class="cls-17" x1="641.5" y1="306.27" x2="646.06" y2="316.36"/>
    <line class="cls-17" x1="651.83" y1="307.91" x2="656.38" y2="318"/>
    <path class="cls-38" d="m731.63,504.12c14.61-4.57,26.25-2.48,30.3,14.91,4.05,17.39-15.07,32.73-34.65,28.76l4.34-43.67Z"/>
    <path class="cls-36" d="m742.05,521.89c-.27,5.44-1.38,10.49-2.95,15.09-6.68,19.37-22.14,30.82-22.14,30.82l-8.79,14.55s-65.07,13.31-64.14-88.59c-6.15-7.5-4.17-24.07,13.76-37.07,26.71-19.35,71,3.39,64.19,34.34,0,0,21.65-.55,20.08,30.86Z"/>
    <path class="cls-25" d="m649.64,489.14c-3.81-13.16,8.3-27.9,12.51-30.01"/>
    <path class="cls-38" d="m739.1,536.97c-6.68,19.37-22.14,30.82-22.14,30.82l-8.79,14.55s-65.07,13.31-64.14-88.59l21.85-30.02c-.51,1.26-9.27,42.76,6.51,79.54,13.27,30.92,55.36,10.47,66.7-6.3Z"/>
    <path class="cls-44" d="m716.94,567.83c-.35,1-6.1,17.53-5.86,37.47-20.63,10.48-41.54,12.91-62.85,3.86,0,0,1.15-6.35,1.95-13.27.51-4.57.89-9.41.67-12.87-17.93.22-30-13.71-30.42-34.17-.13-6.15.78-12.89,2.91-20.01h.02c.93-3.17,2.13-6.41,3.57-9.72,0,0-4.22-5.01-3.62-8.83.6-3.82,12.65-9.65,12.65-9.65,10.63-20.7,29.95-36.96,29.95-36.96,0,0-14.55,17.77-10.67,46.48,0,0,15.4-10.43,18.66,7.74,2.75,15.38-9.43,23.12-13.82,25.36-.02,0-.04.02-.07.02-.89.47-1.44.69-1.44.69,0,0,3.84,27.29,29.22,31.04,17.79,2.64,28.58-6.7,29.15-7.19Z"/>
    <circle class="cls-40" cx="645.32" cy="499.25" r="3.13"/>
    <path class="cls-38" d="m697.49,491.86c20.51-6.48,26.18,31.49,18.29,45.78-6.71,12.15-36.03,9.91-38.62-11.77-2.58-21.68,15.61-32.52,20.33-34.01Z"/>
    <path class="cls-36" d="m694.9,501.49c3.9-6.52,10.17-4.63,13.43.23,3.26,4.86,6.36,18.89-4.48,20.06-13.31,1.44-13.35-12.93-8.95-20.29Z"/>
    <path class="cls-17" d="m650.25,523.35c5.44-7.09,13.36-7.5,16.24-3.55"/>
    <path class="cls-17" d="m651.23,522.17c11.72-2.87,10.15,16.59-3.29,9.75"/>
    <path class="cls-17" d="m660.08,543.27c-6.59,2.5-13.18.71-13.18.71"/>
    <path class="cls-25" d="m693.8,493.6s-18.98,23.51-4.51,35.24c14.16,11.48,24.66-3.61,24.66-3.61"/>
    <path class="cls-25" d="m682.63,496.12c-7.15-11.24-8.81-17.4-10.6-28.13"/>
    <path class="cls-36" d="m650.4,482.87c2.7-3.66,10.4,3.77,10.4,9.98,0,3.15-14.6-4.27-10.4-9.98Z"/>
    <path class="cls-25" d="m665.91,463.68s33.86-18.56,52.04,29.91"/>
    <path class="cls-25" d="m678.08,466.96c7.51,4.75,18.86,19.62,18.86,19.62"/>
    <path class="cls-25" d="m697.56,498.51c-1.08,5.18-6.33,20.18,12.17,18.79"/>
    <path class="cls-25" d="m739.84,534.66s19.78-9.22,14.81-24.37"/>
    <path class="cls-25" d="m742,514.85c3.29-1.03,6.89-7.8,6.89-7.8"/>
    <path class="cls-25" d="m668.67,536.69c5.14,4.3,16.23,27.01,56.11,13.32"/>
    <path class="cls-25" d="m714.74,500.43c21.56,4.61,17.93,27.21,12.55,36.27"/>
    <path class="cls-49" d="m630.05,527.71c.9,3.69,5.52,5.74,10.33,4.57,4.8-1.17,7.96-5.11,7.06-8.81-.9-3.69-5.52-5.74-10.33-4.57s-7.96,5.12-7.06,8.81Z"/>
    <path class="cls-25" d="m675.48,561.98c13.08,8.07,36.33,6.7,50.86-3.27"/>
    <path class="cls-25" d="m666.5,469.25c-2.13,12.33.69,31.05,3.81,35.81"/>
    <path class="cls-25" d="m672.02,531.84c7.72,7.89,26.49,16.28,42.97,7"/>
    <path class="cls-28" d="m634.32,534.07s-4.42,7.72-13.53,7.28c.29-2.8.8-5.68,1.51-8.63.2-.8.4-1.62.64-2.44,1.71,1.38,5.72,3.95,11.38,3.79Z"/>
    <path class="cls-17" d="m626.93,519.13s-4.6-5.85-3.62-8.83c.98-2.98,8.57-8.1,12.65-9.65"/>
    <path class="cls-34" d="m666.49,578.04s.2,15.15-16.31,17.86c.51-4.57.89-9.41.67-12.87,7.52,1.13,15.64-4.99,15.64-4.99Z"/>
    <path class="cls-47" d="m278.73,173.51c-1.13-.07-2.37-.22-3.68-.47l-47.08,63.25-1.38-.33-32.86-8.16c-10.25,4.39-14.64-5.61-11.47-12.93-1.22,1.26-9.21.47-5.59-7.81-7.57,1.95-14.15-14.86-3.66-19.99-9.01,1.04-5.46-18.99,4.13-15.26-7.61-4.97,3.51-26.67,16.6-19.48-4.86-4.97,2.46-16.31,10.89-12.71-5.66-9.25,15.33-25.27,26.93-10.76.87-6.43,9.38-8.83,13.11-1.73-.27-8.25,15.13-10.25,13.98,3.15,5.08-6.5,17.62,4.17,11.23,12.82,7.25-8.32,23.7,3.42,14.78,13.27,10.05,3.62,9.14,17.95-5.92,17.15Z"/>
    <path class="cls-41" d="m278.73,173.51c-1.13-.07-2.37-.22-3.68-.47l-47.08,63.25-1.38-.33-7.52-12.58c-21.25,1.62-27.13-12.91-18.73-24.12-6.55-3.13-4.17-25.27,9.36-24.03-3.68-7.3,5.48-27.73,25.07-18.33,2.26-8.45,15.24-11.96,23.41,0,3.37-7.34,23.89-7.7,20.54,16.6Z"/>
    <path class="cls-5" d="m260.16,274.86c-3.04,30.61-48.89,24.2-46.92,3.79.05-.55.18-14.75-2.53-29.69-10.96-.53-17.26-5.04-16.88-16.53.36-11.51,14.38-20.68,29.49-10.43,0,0,5.21-10.8-3.24-22.85-8.45-12.05,3.95-27.33,15.46-27.33s34.88.53,34.52-12.22c0,0,12.91,20.46,20.1,46.81.2.69.38,1.35.55,2.04,1,3.88,1.86,7.88,2.55,11.94.13.75.24,1.51.35,2.26.09.55.18,1.09.24,1.62,4.86,32.95-1.49,53.18-33.7,50.59Z"/>
    <path class="cls-40" d="m251.94,202.39c0,1.73,1.4,3.13,3.13,3.13s3.13-1.4,3.13-3.13-1.4-3.13-3.13-3.13-3.13,1.4-3.13,3.13Z"/>
    <path class="cls-40" d="m272.99,196.13c0,1.73,1.4,3.13,3.13,3.13s3.13-1.4,3.13-3.13-1.4-3.13-3.13-3.13-3.13,1.4-3.13,3.13Z"/>
    <path class="cls-18" d="m219.06,239.48c-8.93,4.73-13.66-7.15-2.94-8.93-6.2-3.78-12.3-1.68-15.76,3.78"/>
    <path class="cls-18" d="m265.63,179.54c-.86,7.31-1.05,15.45,0,16.59,1.05,1.13,14.08,10.06,15.74,11.16,1.73,1.15-1.75,5.95-7,7.81"/>
    <path class="cls-27" d="m262.9,247.73c6.16,3.73,20.5-11.29,14.94-17.18-9.5-10.05-19.55,14.38-14.94,17.18Z"/>
    <path class="cls-47" d="m235.54,185.43c6.88-11.06,17.97-13.72,19.35-9.59,2.61,7.82-24.98,18.63-19.35,9.59Z"/>
    <path class="cls-47" d="m270.42,183.73c.07-4.24,10.87.72,12.06,3.84,1.2,3.12-12.15,2.05-12.06-3.84Z"/>
    <path class="cls-45" d="m260.98,224.43c-1.08,4.6-7.46,7.04-14.25,5.45-6.79-1.59-11.42-6.62-10.34-11.22,1.08-4.6,7.46-7.04,14.25-5.45,6.79,1.59,11.42,6.62,10.34,11.22Z"/>
    <path class="cls-45" d="m293.62,222.66c-3.19.38-6.03-.47-7.61-2.62-2.66-3.59-.75-9.5,4.15-13.62.2.69.38,1.35.55,2.04,1,3.88,1.86,7.88,2.55,11.94.13.75.24,1.51.35,2.26Z"/>
    <path class="cls-5" d="m333.51,811.31c.07-.02.11-.02.11-.02,0,0,9.07-19.26-5.12-29.04-10.67-7.34-34.23-5.9-38.07-12.71-1-1.78,8.21-18.1,20.61-38.43,16.42-26.89,38.45-60.77,49.83-77.1,19.97-28.69,30.99-59.68-3.37-96.13-19.9-16.87-49.22,3.8-66.89,51.23-6.37,17.11-29.53,78.01-39.38,103.77-8.79,22.83-14.73,37.72-17.33,42.07-.42.71-.91,1.58-1.42,2.53-6.06,11.4-17.35,38.63-11.89,50.41"/>
    <path class="cls-40" d="m333.62,811.29s-105.03,8.86-113.04-3.42c-7.7-11.8,7.85-43.71,13.31-52.94,2.6-4.35,8.54-19.24,17.33-42.07,18.92-3.04,42.04-1.49,59.81,18.24-12.4,20.32-21.61,36.65-20.61,38.43,3.84,6.81,27.4,5.37,38.07,12.71,14.2,9.78,5.13,29.04,5.13,29.04Z"/>
    <path class="cls-26" d="m292.2,771.4c-1.44-.58-13.16-5.46-23.41-11.69-9.78-5.95-23.67-6.37-36.25-2.4.49-.91.95-1.71,1.35-2.37,2.6-4.35,8.54-19.24,17.33-42.07,18.92-3.04,42.04-1.49,59.81,18.24-12.4,20.32-21.61,36.65-20.61,38.43.4.71,1,1.33,1.77,1.86Z"/>
    <path class="cls-19" d="m296.41,779.51c11.54-16.04,29.46-23.97,29.7-14.45.24,9.55-26.72,18.96-26.72,18.96"/>
    <path class="cls-19" d="m296.41,775c-.93-13.39,14.56-33.75,21.35-31.42,9.28,3.18-11.37,26.15-24.26,36.59"/>
    <path class="cls-5" d="m480.5,126.01c5.62-19.63,7.16-41.62,13.14-42.46,5.98-.83,3.76,15.97,3.76,15.97l5.65,6.7-19.92,24.26-2.63-4.47Z"/>
    <path class="cls-18" d="m483.91,112c3.18-14.84,5.15-27.81,9.72-28.44,5.98-.83,3.76,15.97,3.76,15.97"/>
    <path class="cls-5" d="m557.7,116.69c-8.63,6.23-13.13,8.45-13.13,8.45,0,0-12.25,26.54-27.73,31.55,0,0-12.65,37.74-28.4,74.48-15.75,36.74-57.17,72.37-57.17,72.37-56.88,34.65-103.59-33.54-35.5-74.99,7.45-4.99,14.09-10.23,19.61-15.71,37.78-37.38,97.44-138.8,103.39-147.96,5.97-9.14,11.54-7.14,6.77,6.77-4.61,13.49-8.12,24.01-8.32,24.65.95-.95,25.29-25.4,30.6-29.82,4.88-4.06,12.34-.4,3.57,12.73,8.67-11.34,17.08-10.07,8.76,5.97-5.17,9.92-17.19,25.29-17.93,26.27,1.15-.6,20.61-10.78,26.27-9.61,5.83,1.2-2.15,8.61-10.78,14.84Z"/>
    <path class="cls-18" d="m493.34,105.98c13.39-21.19,23.2-37.65,25.43-41.09,5.97-9.14,11.54-7.14,6.77,6.77-4.61,13.49-8.12,24.01-8.32,24.65.95-.95,25.29-25.4,30.6-29.82,4.88-4.06,12.34-.4,3.57,12.73,8.67-11.34,17.08-10.07,8.76,5.97-5.17,9.92-17.19,25.29-17.93,26.27,1.15-.6,20.61-10.78,26.27-9.61,5.83,1.2-2.15,8.61-10.78,14.84-8.63,6.23-13.13,8.45-13.13,8.45"/>
    <path class="cls-18" d="m551.39,79.22c-9.36,13.1-22.88,28.57-22.88,28.57"/>
    <path class="cls-33" d="m73.75,680.95c-1.47,7.38,7.41,20.9,30.28,26.92l5.85-41.27c-13.02,1.5-25.08,6.22-36.12,14.35Z"/>
    <path class="cls-5" d="m96.75,666.6c-.82,44.13-3.27,61.72-3.27,64.58,0,0-29.44,75.66-38.03,136.59,0,0,17.18,30.26,67.89,17.59,0,0,37.21-104.69,44.98-132.09,7.77-27.4,9-66.03,9-66.03l-80.56-20.63Z"/>
    <path class="cls-39" d="m55.36,395.22s2.96,10.71,14.04,15.84l11.69-17.73s-12.69-3.7-25.73,1.89Z"/>
    <path class="cls-5" d="m73.49,387.43c-20.01,28.75-41.17,62.34-32.2,89.48,8.97,27.14,57.74,32.89,87.64,0l10.81-75.3-66.25-14.18Z"/>
    <g>
      <path class="cls-37" d="m123.26,456.03c-12.51,30.49-33.81,114.15-49.52,224.92,0,0,70.57-4.25,105.17,21.54.98-1.63,18.28-102.51,20.24-106.1,1.96-3.59,14.04-4.24,16.98-2.29,2.94,1.96,69.01,42.4,76.39,44.73,40.48,12.73,86.02-55.65,64.97-80.97-8.99-10.81-33.95-34.61-71.17-98.27l-163.07-3.57Z"/>
      <g class="cls-6">
        <rect class="cls-9" x="348.67" y="433.64" width="11.22" height="11.22"/>
        <rect class="cls-9" x="293.98" y="433.64" width="11.22" height="11.22"/>
        <rect class="cls-9" x="239.3" y="433.64" width="11.22" height="11.22"/>
        <rect class="cls-9" x="184.61" y="433.64" width="11.22" height="11.22"/>
        <rect class="cls-9" x="129.92" y="433.64" width="11.22" height="11.22"/>
        <rect class="cls-9" x="75.24" y="433.64" width="11.22" height="11.22"/>
        <rect class="cls-9" x="20.55" y="433.64" width="11.22" height="11.22"/>
        <rect class="cls-9" x="348.67" y="503.03" width="11.22" height="11.22"/>
        <rect class="cls-9" x="293.98" y="503.03" width="11.22" height="11.22"/>
        <rect class="cls-9" x="239.3" y="503.03" width="11.22" height="11.22"/>
        <rect class="cls-9" x="184.61" y="503.03" width="11.22" height="11.22"/>
        <rect class="cls-9" x="129.92" y="503.03" width="11.22" height="11.22"/>
        <rect class="cls-9" x="75.24" y="503.03" width="11.22" height="11.22"/>
        <rect class="cls-9" x="20.55" y="503.03" width="11.22" height="11.22"/>
        <rect class="cls-9" x="348.67" y="572.41" width="11.22" height="11.22"/>
        <rect class="cls-9" x="293.98" y="572.41" width="11.22" height="11.22"/>
        <rect class="cls-9" x="239.3" y="572.41" width="11.22" height="11.22"/>
        <rect class="cls-9" x="184.61" y="572.41" width="11.22" height="11.22"/>
        <rect class="cls-9" x="129.92" y="572.41" width="11.22" height="11.22"/>
        <rect class="cls-9" x="75.24" y="572.41" width="11.22" height="11.22"/>
        <rect class="cls-9" x="20.55" y="572.41" width="11.22" height="11.22"/>
        <rect class="cls-9" x="348.67" y="641.8" width="11.22" height="11.22"/>
        <rect class="cls-9" x="293.98" y="641.8" width="11.22" height="11.22"/>
        <rect class="cls-9" x="239.3" y="641.8" width="11.22" height="11.22"/>
        <rect class="cls-9" x="184.61" y="641.8" width="11.22" height="11.22"/>
        <rect class="cls-9" x="129.92" y="641.8" width="11.22" height="11.22"/>
        <rect class="cls-9" x="75.24" y="641.8" width="11.22" height="11.22"/>
        <rect class="cls-9" x="20.55" y="641.8" width="11.22" height="11.22"/>
        <rect class="cls-9" x="348.67" y="711.19" width="11.22" height="11.22"/>
        <rect class="cls-9" x="293.98" y="711.19" width="11.22" height="11.22"/>
        <rect class="cls-9" x="239.3" y="711.19" width="11.22" height="11.22"/>
        <rect class="cls-9" x="184.61" y="711.19" width="11.22" height="11.22"/>
        <rect class="cls-9" x="129.92" y="711.19" width="11.22" height="11.22"/>
        <rect class="cls-9" x="75.24" y="711.19" width="11.22" height="11.22"/>
        <rect class="cls-9" x="20.55" y="711.19" width="11.22" height="11.22"/>
        <rect class="cls-9" x="-17.09" y="393.34" width="22.44" height="22.44"/>
        <rect class="cls-9" x="38.93" y="393.34" width="22.44" height="22.44"/>
        <rect class="cls-9" x="94.96" y="393.34" width="22.44" height="22.44"/>
        <rect class="cls-9" x="150.99" y="393.34" width="22.44" height="22.44"/>
        <rect class="cls-9" x="207.01" y="393.34" width="22.44" height="22.44"/>
        <rect class="cls-9" x="263.04" y="393.34" width="22.44" height="22.44"/>
        <rect class="cls-9" x="319.07" y="393.34" width="22.44" height="22.44"/>
        <rect class="cls-9" x="375.09" y="393.34" width="22.44" height="22.44"/>
        <rect class="cls-9" x="-17.09" y="462.72" width="22.44" height="22.44"/>
        <rect class="cls-9" x="38.93" y="462.72" width="22.44" height="22.44"/>
        <rect class="cls-9" x="94.96" y="462.72" width="22.44" height="22.44"/>
        <rect class="cls-9" x="150.99" y="462.72" width="22.44" height="22.44"/>
        <rect class="cls-9" x="207.01" y="462.72" width="22.44" height="22.44"/>
        <rect class="cls-9" x="263.04" y="462.72" width="22.44" height="22.44"/>
        <rect class="cls-9" x="319.07" y="462.72" width="22.44" height="22.44"/>
        <rect class="cls-9" x="375.09" y="462.72" width="22.44" height="22.44"/>
        <rect class="cls-9" x="-17.09" y="532.11" width="22.44" height="22.44"/>
        <rect class="cls-9" x="38.93" y="532.11" width="22.44" height="22.44"/>
        <rect class="cls-9" x="94.96" y="532.11" width="22.44" height="22.44"/>
        <rect class="cls-9" x="150.99" y="532.11" width="22.44" height="22.44"/>
        <rect class="cls-9" x="207.01" y="532.11" width="22.44" height="22.44"/>
        <rect class="cls-9" x="263.04" y="532.11" width="22.44" height="22.44"/>
        <rect class="cls-9" x="319.07" y="532.11" width="22.44" height="22.44"/>
        <rect class="cls-9" x="375.09" y="532.11" width="22.44" height="22.44"/>
        <rect class="cls-9" x="-17.09" y="601.5" width="22.44" height="22.44"/>
        <rect class="cls-9" x="38.93" y="601.5" width="22.44" height="22.44"/>
        <rect class="cls-9" x="94.96" y="601.5" width="22.44" height="22.44"/>
        <rect class="cls-9" x="150.99" y="601.5" width="22.44" height="22.44"/>
        <rect class="cls-9" x="207.01" y="601.5" width="22.44" height="22.44"/>
        <rect class="cls-9" x="263.04" y="601.5" width="22.44" height="22.44"/>
        <rect class="cls-9" x="319.07" y="601.5" width="22.44" height="22.44"/>
        <rect class="cls-9" x="375.09" y="601.5" width="22.44" height="22.44"/>
        <rect class="cls-9" x="-17.09" y="670.88" width="22.44" height="22.44"/>
        <rect class="cls-9" x="38.93" y="670.88" width="22.44" height="22.44"/>
        <rect class="cls-9" x="94.96" y="670.88" width="22.44" height="22.44"/>
        <rect class="cls-9" x="150.99" y="670.88" width="22.44" height="22.44"/>
        <rect class="cls-9" x="207.01" y="670.88" width="22.44" height="22.44"/>
        <rect class="cls-9" x="263.04" y="670.88" width="22.44" height="22.44"/>
        <rect class="cls-9" x="319.07" y="670.88" width="22.44" height="22.44"/>
        <rect class="cls-9" x="375.09" y="670.88" width="22.44" height="22.44"/>
      </g>
    </g>
    <path class="cls-26" d="m193.8,292.48c16.99-22.31,40.59-34.19,79.19-13.79,0,0-51.97,24.53-79.19,13.79Z"/>
    <path class="cls-32" d="m432.8,320.99s-89.81,32.61-95.25,39.36c-5.44,6.74-20.26,56.24-27.56,81.93-7.32,25.69-13.89,31.88-13.89,31.88,0,0-62.79-9.19-107.78-5.64-45.02,3.57-67.14,2.44-72.37.2-5.26-2.26-6.19-10.69-3.19-19.88.29-.87.62-1.86.98-3,3.57-10.96,10.83-33.01,10.83-33.01,0,0-26.45-9.7-51.32-14.82-6.26-1.31-12.42-2.31-18.04-2.8,0,0,23.25-31.88,47.61-58.13,6.12-6.57,12.62-12.89,19.15-18.7,19.55-17.44,39.27-30.42,49.1-32.66,13.13-3,31.11.24,57.51-2.55,51.54-5.44,123.56-25.6,167.04-54.62,4.24,6.1,9.65,14.53,15.2,24.76,7.52,13.89,15.22,31.11,20.3,50.23,0,0,2.42,11.05,1.69,17.44Z"/>
    <path class="cls-42" d="m149.34,332.92l-24.78,79.92s-26.45-9.7-51.32-14.82c6.68-10.18,17.62-16.86,30.44-12.71,20.97,6.81,23.56-50.83,45.66-52.38Z"/>
    <path class="cls-39" d="m410.81,253.32c-37.78,2.02-100.05,33.78-127.61,72.26-32.36,45.19-78.9,39.2-100.48,7.34-16.03-23.67-33.38-20.65-60.75-14.53,19.55-17.44,39.27-30.42,49.1-32.66,13.13-3,31.11.24,57.51-2.55,51.54-5.44,123.56-25.6,167.04-54.62,4.24,6.1,9.65,14.53,15.2,24.76Z"/>
    <polyline class="cls-13" points="152.67 322.19 149.34 332.92 124.56 412.84"/>
    <path class="cls-21" d="m226.08,521.88c25.7,3.48,51.4-1.56,51.4-1.56"/>
  </g>
</svg>