<?xml version="1.0" encoding="utf-8"?>
<!-- Generator: Adobe Illustrator 27.9.0, SVG Export Plug-In . SVG Version: 6.00 Build 0)  -->
<svg version="1.1" id="Layer_2_00000083061568383296653980000011933569476877271454_"
	 xmlns="http://www.w3.org/2000/svg" xmlns:xlink="http://www.w3.org/1999/xlink" x="0px" y="0px" viewBox="0 0 85 85"
	 style="enable-background:new 0 0 85 85;" xml:space="preserve">
<style type="text/css">
	.st0{display:none;fill:#202022;}
	.st1{fill:#FFFFFF;}
</style>
<g id="Layer_1-2">
	<g>
		<rect class="st0" width="85" height="85"/>
		<g>
			<path class="st1" d="M19.3,34.4h9.9v31.7h-9.9C19.3,66.1,19.3,34.4,19.3,34.4z M24.2,18.6c3.2,0,5.7,2.6,5.7,5.7S27.4,30,24.2,30
				s-5.7-2.6-5.7-5.7l0,0C18.5,21.1,21.1,18.6,24.2,18.6"/>
			<path class="st1" d="M35.4,34.4h9.5v4.3H45c1.9-3.3,5.5-5.3,9.3-5.1c10,0,11.8,6.6,11.8,15.1v17.4h-9.9V50.7
				c0-3.7-0.1-8.4-5.1-8.4s-5.9,4-5.9,8.2v15.7h-9.8C35.4,66.1,35.4,34.4,35.4,34.4z"/>
		</g>
	</g>
</g>
</svg>
