<?xml version="1.0" encoding="utf-8"?>
<!-- Generator: Adobe Illustrator 27.9.0, SVG Export Plug-In . SVG Version: 6.00 Build 0)  -->
<svg version="1.1" id="Layer_2_00000016053550486137972640000013677136556164871590_"
	 xmlns="http://www.w3.org/2000/svg" xmlns:xlink="http://www.w3.org/1999/xlink" x="0px" y="0px" viewBox="0 0 85 85"
	 style="enable-background:new 0 0 85 85;" xml:space="preserve">
<style type="text/css">
	.st0{display:none;fill:#202022;}
	.st1{fill:#FFFFFF;}
</style>
<g id="Layer_1-2">
	<g>
		<rect class="st0" width="85" height="85"/>
		<path class="st1" d="M63.7,18.7H21.3c-1.5,0-2.6,1.2-2.6,2.6l0,0v42.3c0,1.5,1.2,2.6,2.6,2.6h22.8V47.9h-6.2v-7.2h6.2v-5.3
			c0-6.1,3.8-9.5,9.2-9.5c1.8,0,3.7,0.1,5.5,0.3v6.4h-3.8c-3,0-3.6,1.4-3.6,3.5v4.6h7.1l-0.9,7.2h-6.2v18.4h12.1
			c1.4,0,2.6-1.2,2.6-2.6l0,0V21.3C66.3,19.9,65.1,18.7,63.7,18.7C63.7,18.7,63.7,18.7,63.7,18.7z"/>
	</g>
</g>
</svg>
