<?xml version="1.0" encoding="UTF-8"?>
<svg id="Layer_2" xmlns="http://www.w3.org/2000/svg" version="1.1" viewBox="0 0 143.2 179">
  <!-- Generator: Adobe Illustrator 29.7.1, SVG Export Plug-In . SVG Version: 2.1.1 Build 8)  -->
  <defs>
    <style>
      .st0 {
        fill: #a6a6a6;
      }
    </style>
  </defs>
  <g id="Layer_1-2">
    <g>
      <polygon class="st0" points="134.3 62.7 134.3 53.7 116.4 53.7 116.4 35.8 98.5 35.8 98.5 17.9 80.6 17.9 80.6 0 62.7 0 62.7 17.9 44.8 17.9 44.8 35.8 26.9 35.8 26.9 53.7 8.9 53.7 8.9 62.7 0 62.7 0 80.6 143.2 80.6 143.2 62.7 134.3 62.7"/>
      <polygon class="st0" points="134.3 152.2 116.4 152.2 116.4 134.3 98.5 134.3 98.5 116.4 80.6 116.4 80.6 98.5 62.7 98.5 62.7 116.4 44.8 116.4 44.8 134.3 26.9 134.3 26.9 152.2 8.9 152.2 8.9 161.1 0 161.1 0 179 143.2 179 143.2 161.1 134.3 161.1 134.3 152.2"/>
    </g>
  </g>
</svg>