<?xml version="1.0" encoding="UTF-8"?>
<svg id="Layer_2" data-name="Layer 2" xmlns="http://www.w3.org/2000/svg" viewBox="0 0 295.36 277">
  <defs>
    <style>
      .cls-1 {
        fill-rule: evenodd;
      }
    </style>
  </defs>
  <g id="Layer_1-2" data-name="Layer 1">
    <path class="cls-1" d="M86.87,14.58h0v34.38c0,3.7-4.33,5.72-7.17,3.34l-27.58-23.15h0l-41.22,11.53-7.72,2.16c-1.88.53-3.19,2.24-3.19,4.2v229.95h47.76c2.41,0,4.36-1.95,4.36-4.36V96.83c0-3.7,4.33-5.72,7.17-3.34l26.03,21.84c.99.83,1.56,2.05,1.56,3.34v158.33h47.76c2.41,0,4.36-1.95,4.36-4.36v-102.92c0-3.7,4.33-5.72,7.17-3.34l26.03,21.84c.99.83,1.56,2.05,1.56,3.34v85.44h47.76c2.41,0,4.36-1.95,4.36-4.36v-30.02c0-3.7,4.33-5.72,7.17-3.34l43.74,36.7c.79.66,1.78,1.02,2.8,1.02h11.43c2.41,0,4.36-1.95,4.36-4.36v-37.34c0-1.29-.57-2.51-1.56-3.34l-66.38-55.7c-.99-.83-1.56-2.05-1.56-3.34v-41.7h0v-56.28c0-1.29-.57-2.51-1.56-3.34L138.99,0h0l-6.55,1.83-45.57,12.75h0ZM138.99,67.67v32.35c0,1.29.57,2.51,1.56,3.34l26.03,21.84c2.84,2.38,7.17.36,7.17-3.34v-32.35c0-1.29-.57-2.51-1.56-3.34l-26.03-21.84c-2.84-2.38-7.17-.36-7.17,3.34Z"/>
  </g>
</svg>