<?xml version="1.0" encoding="UTF-8"?>
<svg id="Layer_2" data-name="Layer 2" xmlns="http://www.w3.org/2000/svg" viewBox="0 0 315.51 277">
  <g id="Layer_1-2" data-name="Layer 1">
    <g>
      <polygon points="90.11 177.35 45.06 59.27 0 177.35 6.76 174.83 45.06 73.63 82.17 174.83 90.11 177.35"/>
      <polygon points="315.51 177.35 270.45 59.27 225.4 177.35 232.16 174.83 270.45 73.63 307.57 174.83 315.51 177.35"/>
      <path d="M42.41,195.63v.02c0,2.05,1.66,3.71,3.71,3.71s3.71-1.66,3.71-3.71v-.05c26.71-.59,40.13-6.3,40.28-17.13H0c.14,11.12,14.28,16.84,42.41,17.17ZM46.12,195.65v2.76c-1.52,0-2.75-1.24-2.75-2.76h2.75Z"/>
      <path d="M267.81,195.63v.02c0,2.05,1.66,3.71,3.71,3.71s3.71-1.66,3.71-3.71v-.05c26.71-.59,40.14-6.3,40.28-17.13h-90.11c.14,11.12,14.28,16.84,42.41,17.17ZM271.53,195.65v2.76c-1.52,0-2.76-1.24-2.76-2.76h2.76Z"/>
      <polygon points="42.82 84.31 42.82 86.55 42.82 173.32 42.82 175.55 45.06 177.96 47.29 175.55 47.29 173.32 47.29 86.55 47.29 84.31 45.06 76.49 42.82 84.31"/>
      <polygon points="268.22 84.31 268.22 86.55 268.22 173.32 268.22 175.55 270.45 177.96 272.69 175.55 272.69 173.32 272.69 86.55 272.69 84.31 270.45 76.49 268.22 84.31"/>
      <path d="M257.19,43.52v15.31h26.52V5.24h-26.52v15.31h-66.29l-33.14,19.14-33.15-19.14H58.32V5.24h-26.52v53.59h26.52v-15.31h66.29l13.26,7.65-6.63,3.83v206.68l26.51,15.32,26.52-15.32v-97.59l-19.31-10.74-.57,96.85-6.63,3.83-6.63-3.83V66.48l6.63-3.83,6.63,3.83v62.05l19.89,12.29V55l-6.63-3.83,13.26-7.65h66.29ZM171.01,162.17l6.63,3.82v78.15l-6.63,3.36v-85.33ZM144.5,62.66v191.37l13.26,7.66v7.65l-19.89-11.48V58.83l6.63-3.83,6.63,3.83-6.63,3.83ZM177.65,128.71l-6.63-4.28v-61.55l-46.41-27.02H45.05v19.14h-6.63V9.07h6.63v19.14h79.55l53.04,31.43v69.08ZM171.01,47.35l-6.63-3.83,26.52-15.31h72.92V9.07h6.63v45.93h-6.63v-19.14h-72.92l-19.89,11.49Z"/>
      <path d="M190.9,7.65V0h-66.29v7.65l33.14,19.14,33.15-19.14ZM157.75,9.07v15.31l-26.51-15.31h26.51Z"/>
    </g>
  </g>
</svg>