<?xml version="1.0" encoding="UTF-8"?>
<svg id="Layer_2" xmlns="http://www.w3.org/2000/svg" version="1.1" viewBox="0 0 1000 1000">
  <!-- Generator: Adobe Illustrator 29.7.1, SVG Export Plug-In . SVG Version: 2.1.1 Build 8)  -->
  <defs>
    <style>
      .st0 {
        fill: #1e1e1e;
      }
    </style>
  </defs>
  <g id="Layer_1-2">
    <g>
      <polygon class="st0" points="350 800 450 800 450 650 600 650 600 550 450 550 450 400 350 400 350 550 200 550 200 650 350 650 350 800"/>
      <path class="st0" d="M950,100v-50h-50V0H200v50h-50v100H50v50H0v750h50v50h700v-50h50V200h-50v-50H250v-50h650v650h-50v100h100v-50h50V100h-50ZM700,250v650H100V250h600Z"/>
    </g>
  </g>
</svg>