<?xml version="1.0" encoding="UTF-8"?>
<svg id="Layer_2" data-name="Layer 2" xmlns="http://www.w3.org/2000/svg" viewBox="0 0 320.55 320.33">
  <g id="Layer_1-2" data-name="Layer 1">
    <g>
      <path d="M195.51,187.93h0v-.06c0-6.78,0-13.55,0-20.33,0-.29-.03-.58-.1-.84-.14-.53-.5-.84-1.02-1.01-1.29-.4-2.52.47-2.58,1.82,0,.17,0,.35,0,.52v18.16l3.69,2.6v-.85Z"/>
      <path d="M185.52,168.05c0-.47-.11-.91-.32-1.32-.37-.73-.96-1.11-1.79-1.1-.81,0-1.37.39-1.74,1.09-.21.39-.31.81-.31,1.26v10.84l4.16,2.93v-13.7Z"/>
      <path d="M170.59,203.77c-.94-1.12-1.88-2.24-2.81-3.37v82.91c20.22-1.07,38.68-6.7,55.41-16.66l-28.98-34.63-23.62-28.24Z"/>
      <path d="M258.5,235.64s0,0,0,0l-55.85-39.33-7.14-5.03-5.12-3.6-4.87-3.43-5.87-4.13-3.42-2.41s-.08-.06-.12-.08c-.56-.41-1.04-.91-1.51-1.43-.84-.95-1.23-2.08-1.25-3.37-.02-1.51-.18-3.03-.28-4.53-.07-1-.11-1.99-.16-2.99-.06-.93-.12-1.85-.18-2.78-.05-.58-.09-1.17-.12-1.75-.07-1-.11-1.99-.16-2.99-.1-1.51-.21-3.03-.3-4.54-.07-1.01-.11-2.03-.17-3.05-.09-1.49-.2-2.98-.3-4.48-.06-1.02-.1-2.03-.16-3.05-.1-1.49-.2-2.98-.3-4.48-.03-.42-.03-.84-.05-1.27,0-.2-.05-.41-.08-.62h-7.57c0,.21-.03.4-.03.59v25.63c0,5.86,0,11.72,0,17.59v6.72c0,1.43.37,2.81.83,4.16.58,1.72,1.35,3.36,2.36,4.87.08.12.36.47,1.06,1.32,3.23,3.93,15.37,18.4,57.18,68.38,0,0,.02.03.03.04,8.19-5.06,15.95-11.18,23.3-18.32,3.68-3.76,7.08-7.64,10.22-11.63h0s0,0,0,0h0Z"/>
      <polygon points="264.7 165.31 244.72 118.54 224.74 165.31 264.7 165.31"/>
      <path d="M296.58,159.78c0-3.27-.18-6.54-.29-9.94,8.02-2.3,16.1-4.62,24.26-6.97-1.92-9.65-3.82-19.18-5.74-28.86-8.43,1-16.78,1.98-25.19,2.98-2.15-6.34-4.68-12.42-7.67-18.34,6.64-5.29,13.2-10.52,19.79-15.77-5.5-8.22-10.93-16.33-16.36-24.47-7.45,4.18-14.76,8.28-22.16,12.43-4.37-5.03-9.07-9.67-14.07-14.01,4.12-7.44,8.18-14.77,12.27-22.16-8.22-5.48-16.33-10.9-24.48-16.35-5.28,6.7-10.48,13.3-15.71,19.95-5.97-3-12.08-5.46-18.37-7.58.48-4.26.96-8.4,1.42-12.55.46-4.18,1.02-8.35,1.37-12.5C203.14,4.88,177.7-.08,176.76,0c-2.26,8.04-4.53,16.1-6.83,24.24-3.24-.2-6.45-.31-9.66-.31s-6.42.11-9.66.31c-2.29-8.14-4.56-16.2-6.83-24.24-.94-.08-26.38,4.88-28.88,5.63.35,4.15.91,8.32,1.37,12.5.46,4.15.94,8.29,1.42,12.55-6.29,2.12-12.39,4.58-18.37,7.58-5.23-6.65-10.43-13.25-15.71-19.95-8.15,5.45-16.27,10.87-24.48,16.35,4.09,7.39,8.15,14.72,12.27,22.16-5,4.34-9.7,8.98-14.07,14.01-7.4-4.15-14.71-8.25-22.16-12.43-5.44,8.14-10.86,16.25-16.36,24.47,6.59,5.25,13.15,10.48,19.79,15.77-2.99,5.91-5.52,12-7.67,18.34-8.41-1-16.77-1.98-25.19-2.98-1.93,9.68-3.82,19.21-5.74,28.86,8.16,2.35,16.24,4.67,24.26,6.97-.11,3.4-.28,6.67-.29,9.94,0,3.27.14,6.54.23,9.98-8.01,2.25-16.1,4.53-24.18,6.81-.09.84,5.23,27.84,5.7,28.9,8.27-.93,16.56-1.87,24.97-2.83,2.12,6.31,4.59,12.41,7.58,18.39-6.64,5.23-13.24,10.42-19.94,15.7,5.44,8.16,10.87,16.28,16.35,24.48,7.39-4.09,14.72-8.16,22.08-12.23,2.35,2.48,4.56,4.94,6.9,7.29,2.3,2.31,4.73,4.51,7.15,6.83-4.1,7.32-8.22,14.67-12.38,22.09,8.17,5.45,16.29,10.88,24.48,16.36,5.28-6.64,10.52-13.21,15.76-19.8,5.93,3,11.99,5.52,18.34,7.67-1,8.4-1.98,16.75-2.99,25.19,9.64,1.92,19.17,3.82,28.84,5.74,1.25-4.03,2.34-8.07,3.51-12.1,1.17-4.05,2.33-8.09,3.52-12.21,3.46.22,6.91.34,10.37.34s6.91-.12,10.37-.34c1.19,4.12,2.35,8.17,3.52,12.21,1.17,4.03,2.26,8.07,3.51,12.1,9.67-1.93,19.2-3.82,28.84-5.74-1.01-8.45-1.99-16.79-2.99-25.19,6.35-2.15,12.4-4.67,18.34-7.67,5.24,6.6,10.48,13.16,15.76,19.8,8.2-5.48,16.32-10.91,24.48-16.36-4.16-7.42-8.28-14.76-12.38-22.09,2.43-2.31,4.85-4.51,7.15-6.83,2.34-2.35,4.55-4.8,6.9-7.29,7.35,4.07,14.69,8.14,22.08,12.23,5.48-8.21,10.91-16.32,16.35-24.48-6.7-5.28-13.3-10.47-19.94-15.7,2.99-5.97,5.46-12.08,7.58-18.39,8.41.96,16.7,1.9,24.97,2.83.47-1.06,5.79-28.06,5.7-28.9-8.07-2.27-16.16-4.55-24.18-6.81.09-3.44.24-6.71.23-9.98ZM160.28,290.07c-72.53.05-130.87-58.5-131.07-130.84.11-72.35,58.34-130.94,130.81-131.01h.52c72.47.07,130.7,58.66,130.81,131.01-.2,72.33-58.54,130.89-131.07,130.84Z"/>
      <path d="M160.39,34.72h-.23c-68.45-.17-125.77,55.98-124.38,126.82.54,27.39,9.07,51.52,25.02,72.48.02-.02.04-.03.06-.05l55.8-39.29v-29.21c0-1.8,1.15-2.95,2.94-2.95h26.16l.12-1.88.05-.87h-26.42c-.13,0-.27,0-.4,0-.48-.07-.76-.38-.76-.85s.27-.79.75-.85c.13-.02.27,0,.4,0h26.52l.02-.39.12-1.68h-26.32c-.15,0-.31,0-.46,0-.36-.05-.72-.14-.95-.46-.47-.66-.33-1.9.65-2.19.23-.07.48-.11.73-.11,8.22,0,16.47,0,24.7,0h1.82v-.1s.1-1.5.1-1.5l.05-.81h-.19s-16.67,0-16.67,0c-3.92,0-7.85,0-11.77,0-.39,0-.62-.12-.84-.44-.58-.88-1.21-1.73-1.81-2.59-.54-.76-1.07-1.52-1.67-2.38h33.29l.08-1.32.09-1.54.03-.41h-.48c-3.54.11-34.49.07-34.88-.05v-5.87h35.75v-.02l.27-1.96h5.12v-8.92h15.01v8.92h5.12l.27,1.96v.02h35.75v5.87c-.39.12-31.35.15-34.88.05h-.48l.03.41.09,1.54.08,1.32h33.29c-.59.85-1.13,1.62-1.67,2.38-.6.86-1.23,1.71-1.81,2.59-.22.32-.45.44-.84.44-3.92-.02-7.85,0-11.77,0h-16.67s-.19,0-.19,0l.05.81.09,1.5v.1h1.83c8.23,0,16.48,0,24.7,0,.25,0,.5.04.73.11.98.29,1.12,1.52.65,2.19-.23.32-.58.41-.95.46-.15,0-.31,0-.46,0h-26.32l.12,1.68.02.39h26.52c.13,0,.27,0,.4,0,.48.07.75.38.75.85s-.28.79-.76.85c-.13.02-.27,0-.4,0h-26.42l.05.87.12,1.88h26.16c1.79,0,2.94,1.15,2.94,2.95v29.21l55.8,39.29s.04.03.06.05c15.95-20.95,24.48-45.09,25.02-72.48,1.39-70.84-55.92-126.99-124.38-126.82ZM160.15,40.23h.25c5.24,0,9.5,4.27,9.5,9.51h-19.25c0-5.24,4.26-9.51,9.5-9.51ZM165.6,51.1v54.54h-10.64v-54.54h10.64ZM75.83,189.92c-13.58,0-24.61-11.02-24.61-24.61l24.61-46.77,24.6,46.77c0,13.58-11.02,24.61-24.6,24.61ZM167.86,123.04h-15.16l-76.86-4.95c-1.52-1.8-1.52-3.5,0-5.12l76.86-4.95h15.16l76.86,4.95c1.52,1.62,1.52,3.32,0,5.12l-76.86,4.95ZM244.72,189.92c-13.57,0-24.6-11.02-24.6-24.61l24.6-46.77,24.61,46.77c0,13.58-11.02,24.61-24.61,24.61Z"/>
      <path d="M267.93,168.16c.04-.07.07-.15.1-.22.05-.11.09-.23.12-.35.02-.08.04-.15.05-.23.02-.12.03-.23.04-.36,0-.06.02-.11.02-.17h-46.5s0,0,0,0h0c0,.22.03.43.07.63,0,0,0,.01,0,.02.09.4.26.76.51,1.09,0,0,.01.02.02.03.12.16.26.31.42.46,0,0,0,0,.01.01,0,0,0,0,0,0,.16.15.35.28.55.41.04.03.08.05.12.08.2.13.42.24.66.36.04.02.08.03.11.05.24.11.49.21.76.3.02,0,.04.02.06.02.29.1.59.19.91.28.05.01.09.02.14.04.68.18,1.43.33,2.24.46,0,0,.01,0,.02,0,4.22.66,10.12.7,16.64.7,5.85,0,11.19-.03,15.28-.52.02,0,.04,0,.07,0,.43-.05.85-.11,1.25-.17.04,0,.08-.01.11-.02.37-.06.73-.12,1.08-.19.03,0,.06-.01.09-.02.34-.07.66-.15.97-.23.08-.02.15-.04.23-.06.29-.08.58-.17.84-.26.06-.02.11-.04.17-.06.22-.08.43-.16.63-.25.06-.03.13-.06.19-.09.22-.1.42-.21.61-.33.06-.04.12-.07.17-.11.18-.12.34-.24.49-.36.01-.01.03-.02.04-.03.02-.02.03-.04.05-.06.12-.11.22-.22.32-.34.04-.05.09-.11.13-.16.08-.11.15-.23.21-.35Z"/>
      <path d="M126.34,232.01l-28.98,34.63c16.73,9.96,35.19,15.59,55.41,16.66v-82.91c-.93,1.13-1.87,2.25-2.81,3.37l-23.62,28.24Z"/>
      <path d="M128.73,186.19v-18.16c0-.17,0-.35,0-.52-.06-1.35-1.28-2.22-2.58-1.82-.52.16-.87.48-1.02,1.01-.07.27-.1.56-.1.84,0,6.78,0,13.55,0,20.33v.06h0v.85l3.69-2.6Z"/>
      <polygon points="95.81 165.31 75.83 118.54 55.85 165.31 95.81 165.31"/>
      <path d="M52.29,166.83c0,.75.25,1.39.73,1.93,2.58,2.92,11.69,3.02,22.52,3.02,12.84,0,23.26-.13,23.26-4.95h0s0,0,0,0h-46.5Z"/>
      <path d="M138.88,166.72c-.37-.7-.93-1.09-1.74-1.09-.83,0-1.42.37-1.79,1.1-.21.41-.32.85-.32,1.32v13.7l4.16-2.93v-10.84c0-.45-.1-.86-.31-1.26Z"/>
      <path d="M149.43,136.3c-.03.21-.07.42-.08.62-.02.42-.02.84-.05,1.27-.1,1.5-.2,2.99-.3,4.48-.07,1.02-.11,2.03-.16,3.05-.1,1.5-.21,2.99-.3,4.48-.07,1.02-.11,2.04-.17,3.05-.09,1.51-.2,3.03-.3,4.54-.06,1-.1,1.99-.16,2.99-.03.58-.07,1.17-.12,1.75-.06.93-.12,1.85-.18,2.78-.06,1-.1,1.99-.16,2.99-.1,1.5-.26,3.02-.28,4.53-.02,1.29-.4,2.43-1.25,3.37-.46.52-.95,1.02-1.51,1.43-.04.02-.08.05-.12.08l-3.42,2.41-5.87,4.13-4.87,3.43-5.12,3.6-7.14,5.03-55.84,39.33s0,0,0,0h0s0,.01,0,.01h0c3.13,3.99,6.54,7.87,10.22,11.63,7.35,7.14,15.12,13.26,23.3,18.32,0,0,.02-.03.03-.04,41.81-49.97,53.95-64.45,57.18-68.38.7-.85.99-1.21,1.06-1.32,1.01-1.51,1.77-3.15,2.36-4.87.46-1.35.83-2.73.83-4.16v-6.72c0-5.87,0-11.73,0-17.59v-25.63c0-.19-.02-.38-.03-.59h-7.57Z"/>
    </g>
  </g>
</svg>