<?xml version="1.0" encoding="UTF-8"?>
<svg id="Layer_2" data-name="Layer 2" xmlns="http://www.w3.org/2000/svg" viewBox="0 0 166.2 277">
  <defs>
    <style>
      .cls-1 {
        fill: #8c8c8c;
      }

      .cls-2 {
        fill: #e8e8e8;
      }
    </style>
  </defs>
  <g id="Layer_1-2" data-name="Layer 1">
    <g>
      <path class="cls-1" d="M0,147.73l166.2-73.87v55.4L0,203.13v-55.4Z"/>
      <path class="cls-1" d="M0,73.87L166.2,0v55.4L0,129.26v-55.4Z"/>
      <path d="M0,277h166.2v-55.4h-41.55l-23.08,10.26v28.73l-36.93,16.41h0v-28.73L0,277Z"/>
      <path class="cls-2" d="M101.57,231.86l64.63-28.73v-55.4L0,221.6v55.4l64.63-28.73v28.73l36.93-16.41v-28.73Z"/>
      <path class="cls-1" d="M101.57,231.86l64.63-28.73v-55.4L0,221.6v55.4l64.63-28.73v28.73l36.93-16.41v-28.73Z"/>
      <path d="M124.65,147.73h41.55l-124.65,55.4H0l124.65-55.4Z"/>
      <path d="M124.65,73.87h41.55l-124.65,55.4H0l124.65-55.4Z"/>
    </g>
  </g>
</svg>