<?xml version="1.0" encoding="UTF-8"?>
<svg id="Layer_2" xmlns="http://www.w3.org/2000/svg" version="1.1" viewBox="0 0 85.9 69.4">
  <!-- Generator: Adobe Illustrator 29.7.1, SVG Export Plug-In . SVG Version: 2.1.1 Build 8)  -->
  <defs>
    <style>
      .st0 {
        fill: #fff;
      }
    </style>
  </defs>
  <polygon class="st0" points="71.6 3.5 70.6 2.4 15.3 2.4 14.3 3.5 14.3 5.4 15.3 6.5 70.6 6.5 71.6 5.4 71.6 3.5"/>
  <polygon class="st0" points="6.7 4.7 4.1 4.7 3.1 6.2 10.2 24.5 11.2 25.2 13.7 25.2 14.8 23.7 7.6 5.3 6.7 4.7"/>
  <polygon class="st0" points="81.7 4.7 79.2 4.7 78.2 5.4 71.1 23.7 72.1 25.2 74.7 25.2 75.6 24.6 82.7 6.2 81.7 4.7"/>
  <polygon class="st0" points="20.3 25.7 17.7 25.7 16.7 27.1 23.8 45.4 24.8 46.1 27.3 46.1 28.4 44.6 21.2 26.3 20.3 25.7"/>
  <polygon class="st0" points="65.6 25.7 64.6 26.3 57.5 44.7 58.5 46.1 61.1 46.1 62 45.5 69.1 27.1 68.1 25.7 65.6 25.7"/>
  <polygon class="st0" points="52 46.6 51 47.3 43.9 65.6 44.9 67 47.5 67 48.4 66.4 55.5 48 54.5 46.6 52 46.6"/>
  <polygon class="st0" points="33.9 46.6 31.3 46.6 30.3 48 37.4 66.3 38.4 67 40.9 67 41.9 65.6 34.8 47.2 33.9 46.6"/>
</svg>