<?xml version="1.0" encoding="UTF-8"?>
<svg id="Layer_2" data-name="Layer 2" xmlns="http://www.w3.org/2000/svg" viewBox="0 0 304.72 320.33">
  <defs>
    <style>
      .cls-1 {
        fill: #fff;
      }
    </style>
  </defs>
  <g id="Layer_1-2" data-name="Layer 1">
    <g>
      <path d="M259.13,160.17l45.59-49.5-65.96-13.25,7.76-66.82-61.15,27.99L152.36,0l-33.01,58.59-61.15-27.99,7.76,66.82L0,110.66l45.58,49.51L0,209.66l65.94,13.25-7.76,66.82,61.15-27.99,33.02,58.59,33.01-58.59,61.15,27.99-7.75-66.82,65.95-13.25-45.58-49.49ZM203.46,68.8l-7.03,16.36,3.93,40.57c.13,1.21-.55,2.57-1.63,3.12l-31.11,17.31-49.08,97.76-6.62-1.08-22.72-22.72c-.55-.55-.95-1.36-.95-2.16v-43.54c0-1.36.81-2.43,2.03-2.98,1.21-.53,2.57-.27,3.52.68l21.77,21.77c.54.53.81,1.35.94,2.02l1.9,34.08,41.65-83.16-33.81-10.82c-1.21-.4-2.16-1.48-2.3-2.7l-3.92-40.57-10.14-14.74c-.81-1.21-.68-2.7.13-3.79.81-1.08,2.3-1.62,3.51-1.08l18.66,6.36h.14l17.3-16.09c.55-.55,1.22-.82,2.03-.82l8.79-.67c.54,0,1.21.13,1.75.54l20.7,11.5,15.95-9.2c1.21-.67,2.7-.54,3.78.4.95.82,1.36,2.3.82,3.66Z"/>
      <path class="cls-1" d="M202.64,65.14c-1.08-.94-2.57-1.08-3.78-.4l-15.95,9.2-20.7-11.5c-.54-.4-1.21-.54-1.75-.54l-8.79.67c-.81,0-1.48.27-2.03.82l-17.3,16.09h-.14l-18.66-6.36c-1.21-.54-2.7,0-3.51,1.08-.82,1.09-.94,2.58-.13,3.79l10.14,14.74,3.92,40.57c.13,1.22,1.09,2.3,2.3,2.7l33.81,10.82-41.65,83.16-1.9-34.08c-.13-.67-.4-1.49-.94-2.02l-21.77-21.77c-.95-.95-2.31-1.21-3.52-.68-1.22.55-2.03,1.63-2.03,2.98v43.54c0,.81.4,1.62.95,2.16l22.72,22.72,6.62,1.08,49.08-97.76,31.11-17.31c1.08-.55,1.75-1.9,1.63-3.12l-3.93-40.57,7.03-16.36c.54-1.36.13-2.84-.82-3.66ZM94.73,216.6v-34.49l15.42,15.42,2.03,36.51-17.45-17.44ZM165.33,71.5l2.84,1.62-9.87,7.44-.55-.27,7.58-8.79ZM159.51,68.39l-1.21,1.48-1.48-1.21,2.69-.27ZM150.18,71.64l3.92,3.11-2.43,2.97-5.41-2.43,3.93-3.65ZM141.66,79.61l15.83,6.9c.4.13.81.27,1.21.27.55,0,1.22-.27,1.76-.55l13.25-10.01,2.7,1.49-18.25,10.68-18.94-6.49,2.43-2.3ZM162.61,140.88l-32.45-10.42-3.78-39.21c-.13-.55-.27-1.09-.54-1.49l-5.14-7.44,36.51,12.44s0,.13.13.13l.14.13,16.49,5.54,2.3,24.07-13.66,16.23ZM193.72,124.24l-16.36,9.05,4.72-5.54c.55-.67.82-1.63.67-2.43l-2.56-27.45c-.13-1.21-1.09-2.3-2.16-2.7l-11.9-4.06,27.59-15.95-3.52,8.25c-.27.55-.27,1.09-.27,1.63l3.79,39.22Z"/>
      <polygon points="112.18 234.04 94.73 216.6 94.73 182.11 110.15 197.53 112.18 234.04"/>
      <polygon points="168.16 73.12 158.29 80.56 157.75 80.29 165.32 71.5 168.16 73.12"/>
      <polygon points="154.1 74.74 151.67 77.72 146.26 75.29 150.18 71.64 154.1 74.74"/>
      <path d="M176.41,77.72l-18.26,10.68-18.93-6.49,2.43-2.3,15.82,6.9c.41.13.81.27,1.22.27.54,0,1.22-.27,1.76-.54l13.25-10.01,2.71,1.49Z"/>
      <path d="M176.27,124.64l-13.66,16.23-32.45-10.41-3.79-39.22c-.13-.54-.27-1.08-.54-1.48l-5.14-7.44,36.52,12.44s0,.14.13.14l.14.14,16.5,5.54,2.3,24.07Z"/>
      <path d="M189.93,85.02l3.79,39.22-16.36,9.06,4.73-5.55c.54-.67.81-1.62.67-2.43l-2.56-27.45c-.14-1.22-1.09-2.3-2.17-2.7l-11.9-4.06,27.59-15.95-3.52,8.25c-.27.54-.27,1.09-.27,1.62Z"/>
    </g>
  </g>
</svg>